<svg width="398" height="357" viewBox="0 0 398 357" fill="none" xmlns="http://www.w3.org/2000/svg">
<g opacity="0.4" filter="url(#filter0_d_408_541)">
<rect x="14.1855" y="14" width="234" height="329" rx="12" fill="white"/>
</g>
<path d="M248.186 25V34L87.1855 19.5L53.6855 14H236.186C246.186 14 247.686 21.5 248.186 25Z" fill="#3567D6"/>
<path d="M184.186 343C204.852 340 246.986 334 248.186 334C246.186 341.5 239.186 343 235.686 343H184.186Z" fill="#3CD0FF"/>
<path d="M14.1855 331.5V327L187.186 343C134.852 343 29.3811 343.168 26.1855 343C16.6855 342.5 15.1855 336.5 14.1855 331.5Z" fill="#3567D6"/>
<path d="M122.185 14L14.185 30C12.6856 18 20.6855 14 24.257 14H122.185Z" fill="#3CD0FF"/>
<rect x="189.186" y="49" width="48" height="2" rx="1" fill="#DEDEDE"/>
<rect x="189.186" y="35" width="50" height="2" rx="1" fill="#DEDEDE"/>
<rect x="189.186" y="42" width="40" height="2" rx="1" fill="#DEDEDE"/>
<circle cx="184.186" cy="50" r="3" fill="#D8D8D8"/>
<circle cx="184.186" cy="36" r="3" fill="#D8D8D8"/>
<circle cx="184.186" cy="43" r="3" fill="#D8D8D8"/>
<line x1="23.1855" y1="88.5" x2="239.186" y2="88.5" stroke="#7F7F7F"/>
<line x1="23.1855" y1="110.5" x2="239.186" y2="110.5" stroke="#7F7F7F"/>
<rect x="23.1855" y="76" width="71" height="3" fill="#C4C4C4"/>
<path d="M28.5776 37.3937V42.7874C25.6003 42.7874 23.1855 40.3719 23.1855 37.3937H28.5776Z" fill="#3CD0FF"/>
<path d="M28.5786 37.3937H23.1865V32C26.1638 32 28.5786 34.4155 28.5786 37.3937Z" fill="#3567D6"/>
<path d="M33.9692 37.3937C33.9692 40.3719 31.5544 42.7874 28.5771 42.7874C28.5771 39.8093 30.9919 37.3937 33.9692 37.3937Z" fill="#3567D6"/>
<path d="M33.9692 37.3937C30.9919 37.3937 28.5771 34.9782 28.5771 32C31.5544 32 33.9692 34.4155 33.9692 37.3937Z" fill="#3CD0FF"/>
<path d="M38.5241 47.5421C38.3002 47.5421 38.0952 47.5138 37.909 47.4571C37.7229 47.3978 37.565 47.3155 37.4355 47.2103L37.5691 46.8784C37.704 46.981 37.8483 47.0579 38.0021 47.1091C38.1559 47.1604 38.3299 47.186 38.5241 47.186C38.7534 47.186 38.922 47.1455 39.03 47.0646C39.1406 46.981 39.1959 46.8731 39.1959 46.7409C39.1959 46.6329 39.1568 46.548 39.0785 46.4859C39.0003 46.4212 38.8694 46.3699 38.686 46.3321L38.253 46.2431C37.9967 46.1892 37.8051 46.1001 37.6783 45.976C37.5543 45.8519 37.4922 45.6847 37.4922 45.4742C37.4922 45.3043 37.5367 45.1545 37.6257 45.0251C37.7175 44.8956 37.8443 44.7957 38.0061 44.7256C38.168 44.6528 38.3542 44.6163 38.5646 44.6163C38.7588 44.6163 38.9382 44.646 39.1028 44.7054C39.2701 44.762 39.4117 44.8456 39.5277 44.9563L39.3901 45.2759C39.1608 45.0736 38.8843 44.9724 38.5605 44.9724C38.3609 44.9724 38.2017 45.017 38.083 45.106C37.967 45.195 37.909 45.3137 37.909 45.4621C37.909 45.5754 37.9454 45.6658 38.0183 45.7332C38.0911 45.8007 38.2125 45.8519 38.3825 45.887L38.8114 45.976C39.0812 46.0327 39.2822 46.1204 39.4144 46.2391C39.5466 46.3551 39.6127 46.5129 39.6127 46.7125C39.6127 46.8798 39.5682 47.0255 39.4791 47.1496C39.3901 47.2737 39.2647 47.3708 39.1028 47.4409C38.9409 47.5084 38.748 47.5421 38.5241 47.5421Z" fill="#1C2C50"/>
<path d="M40.0541 47.5057V45.5309H40.4506V45.8506C40.51 45.7373 40.5923 45.6496 40.6975 45.5875C40.8027 45.5255 40.9254 45.4945 41.0657 45.4945C41.3679 45.4945 41.5635 45.6267 41.6525 45.891C41.7146 45.7669 41.8036 45.6698 41.9196 45.5997C42.0356 45.5295 42.1678 45.4945 42.3162 45.4945C42.7586 45.4945 42.9798 45.7589 42.9798 46.2876V47.5057H42.5711V46.3079C42.5711 46.1406 42.5414 46.0178 42.4821 45.9396C42.4254 45.8614 42.331 45.8223 42.1988 45.8223C42.0504 45.8223 41.9331 45.8749 41.8468 45.9801C41.7604 46.0826 41.7173 46.2229 41.7173 46.4009V47.5057H41.3085V46.3079C41.3085 46.1406 41.2802 46.0178 41.2236 45.9396C41.1669 45.8614 41.0725 45.8223 40.9403 45.8223C40.7919 45.8223 40.6746 45.8749 40.5882 45.9801C40.5046 46.0826 40.4628 46.2229 40.4628 46.4009V47.5057H40.0541Z" fill="#1C2C50"/>
<path d="M44.1826 47.5421C44.045 47.5421 43.9222 47.5151 43.8143 47.4612C43.7064 47.4072 43.6201 47.3344 43.5553 47.2427C43.4933 47.1509 43.4622 47.0471 43.4622 46.9311C43.4622 46.7854 43.4987 46.6707 43.5715 46.5871C43.647 46.5035 43.7698 46.4428 43.9398 46.405C44.1124 46.3672 44.3444 46.3483 44.6358 46.3483H44.7734V46.2431C44.7734 46.0893 44.741 45.9787 44.6763 45.9113C44.6115 45.8438 44.505 45.8101 44.3566 45.8101C44.2433 45.8101 44.13 45.8276 44.0166 45.8627C43.9033 45.8951 43.7873 45.9477 43.6686 46.0205L43.5432 45.7332C43.6457 45.6604 43.7738 45.6024 43.9276 45.5592C44.0814 45.5161 44.2284 45.4945 44.3687 45.4945C44.6385 45.4945 44.8381 45.5592 44.9676 45.6887C45.0971 45.8155 45.1619 46.0151 45.1619 46.2876V47.5057H44.7774V47.1779C44.7289 47.2912 44.6533 47.3802 44.5508 47.445C44.4483 47.5097 44.3255 47.5421 44.1826 47.5421ZM44.2635 47.2507C44.4092 47.2507 44.5306 47.1995 44.6277 47.097C44.7248 46.9945 44.7734 46.865 44.7734 46.7085V46.5992H44.6398C44.4429 46.5992 44.2878 46.6087 44.1745 46.6276C44.0639 46.6464 43.9843 46.6788 43.9357 46.7247C43.8898 46.7678 43.8669 46.8285 43.8669 46.9068C43.8669 47.0093 43.902 47.0929 43.9721 47.1577C44.0423 47.2197 44.1394 47.2507 44.2635 47.2507Z" fill="#1C2C50"/>
<path d="M45.7248 47.5057V45.5309H46.1214V45.883C46.2239 45.6482 46.437 45.5174 46.7608 45.4904L46.8943 45.4823L46.9226 45.8303L46.6758 45.8546C46.317 45.8897 46.1376 46.0745 46.1376 46.409V47.5057H45.7248Z" fill="#1C2C50"/>
<path d="M48.1868 47.5421C47.9386 47.5421 47.7538 47.4787 47.6324 47.3519C47.511 47.2251 47.4503 47.0417 47.4503 46.8016V45.8465H47.0658V45.5309H47.4503V44.936H47.859V45.5309H48.4701V45.8465H47.859V46.7692C47.859 46.9122 47.8887 47.0201 47.948 47.0929C48.0101 47.1658 48.1099 47.2022 48.2475 47.2022C48.2907 47.2022 48.3325 47.1981 48.3729 47.19C48.4134 47.1793 48.4539 47.1671 48.4943 47.1536L48.5591 47.4612C48.5186 47.4855 48.462 47.5043 48.3891 47.5178C48.319 47.534 48.2515 47.5421 48.1868 47.5421Z" fill="#1C2C50"/>
<path d="M49.9306 47.5057V44.6528H51.1123C51.4198 44.6528 51.6572 44.7269 51.8245 44.8753C51.9918 45.021 52.0754 45.226 52.0754 45.4904C52.0754 45.7036 52.0187 45.8789 51.9054 46.0165C51.7921 46.1514 51.6316 46.2418 51.4239 46.2876C51.5534 46.3308 51.6626 46.4347 51.7517 46.5992L52.2454 47.5057H51.784L51.2903 46.5952C51.2337 46.49 51.1676 46.4198 51.092 46.3847C51.0192 46.347 50.9248 46.3281 50.8088 46.3281H50.3515V47.5057H49.9306ZM50.3515 46.0125H51.0435C51.4589 46.0125 51.6667 45.8411 51.6667 45.4985C51.6667 45.1586 51.4589 44.9886 51.0435 44.9886H50.3515V46.0125Z" fill="#1C2C50"/>
<path d="M53.504 47.5421C53.1803 47.5421 52.9254 47.4517 52.7392 47.271C52.5531 47.0875 52.46 46.838 52.46 46.5223C52.46 46.32 52.5005 46.1419 52.5814 45.9882C52.665 45.8317 52.7797 45.7103 52.9254 45.624C53.071 45.5376 53.2383 45.4945 53.4272 45.4945C53.6996 45.4945 53.9141 45.5821 54.0706 45.7575C54.2271 45.9302 54.3053 46.1689 54.3053 46.4738V46.6114H52.8566C52.8862 47.0214 53.1034 47.2265 53.5081 47.2265C53.6214 47.2265 53.732 47.2089 53.8399 47.1739C53.9505 47.1388 54.0544 47.0808 54.1515 46.9998L54.2729 47.2831C54.1839 47.3641 54.0692 47.4275 53.929 47.4733C53.7887 47.5192 53.647 47.5421 53.504 47.5421ZM53.4433 45.7818C53.2734 45.7818 53.1385 45.8344 53.0387 45.9396C52.9389 46.0448 52.8782 46.1851 52.8566 46.3605H53.9613C53.9532 46.177 53.9047 46.0354 53.8156 45.9356C53.7266 45.833 53.6025 45.7818 53.4433 45.7818Z" fill="#1C2C50"/>
<path d="M54.7509 48.2341V45.5309H55.1515V45.8668C55.2082 45.7535 55.2945 45.6631 55.4105 45.5956C55.5265 45.5282 55.66 45.4945 55.8111 45.4945C55.9865 45.4945 56.1389 45.5363 56.2684 45.6199C56.4006 45.7036 56.5018 45.8223 56.5719 45.976C56.6447 46.1271 56.6812 46.3079 56.6812 46.5183C56.6812 46.7287 56.6447 46.9108 56.5719 47.0646C56.5018 47.2184 56.4006 47.3371 56.2684 47.4207C56.1389 47.5016 55.9865 47.5421 55.8111 47.5421C55.6654 47.5421 55.5346 47.5111 55.4186 47.449C55.3053 47.3843 55.2189 47.2966 55.1596 47.186V48.2341H54.7509ZM55.7099 47.2265C55.8799 47.2265 56.0148 47.1658 56.1146 47.0444C56.2171 46.923 56.2684 46.7476 56.2684 46.5183C56.2684 46.289 56.2171 46.115 56.1146 45.9963C56.0148 45.8749 55.8799 45.8142 55.7099 45.8142C55.54 45.8142 55.4037 45.8749 55.3012 45.9963C55.2014 46.115 55.1515 46.289 55.1515 46.5183C55.1515 46.7476 55.2014 46.923 55.3012 47.0444C55.4037 47.1658 55.54 47.2265 55.7099 47.2265Z" fill="#1C2C50"/>
<path d="M57.9997 47.5421C57.8 47.5421 57.6274 47.5003 57.4817 47.4167C57.336 47.333 57.2227 47.2157 57.1418 47.0646C57.0635 46.9108 57.0244 46.7287 57.0244 46.5183C57.0244 46.3079 57.0635 46.1271 57.1418 45.976C57.2227 45.8223 57.336 45.7036 57.4817 45.6199C57.6274 45.5363 57.8 45.4945 57.9997 45.4945C58.1939 45.4945 58.3639 45.5363 58.5096 45.6199C58.6552 45.7036 58.7685 45.8223 58.8495 45.976C58.9304 46.1271 58.9709 46.3079 58.9709 46.5183C58.9709 46.7287 58.9304 46.9108 58.8495 47.0646C58.7685 47.2157 58.6552 47.333 58.5096 47.4167C58.3639 47.5003 58.1939 47.5421 57.9997 47.5421ZM57.9997 47.2265C58.1669 47.2265 58.3018 47.1658 58.4043 47.0444C58.5069 46.923 58.5581 46.7476 58.5581 46.5183C58.5581 46.289 58.5069 46.115 58.4043 45.9963C58.3018 45.8749 58.1669 45.8142 57.9997 45.8142C57.8297 45.8142 57.6935 45.8749 57.5909 45.9963C57.4884 46.115 57.4372 46.289 57.4372 46.5183C57.4372 46.7476 57.4884 46.923 57.5909 47.0444C57.6935 47.1658 57.8297 47.2265 57.9997 47.2265Z" fill="#1C2C50"/>
<path d="M59.4299 47.5057V45.5309H59.8265V45.883C59.929 45.6482 60.1421 45.5174 60.4659 45.4904L60.5994 45.4823L60.6277 45.8303L60.3809 45.8546C60.0221 45.8897 59.8427 46.0745 59.8427 46.409V47.5057H59.4299Z" fill="#1C2C50"/>
<path d="M61.8919 47.5421C61.6437 47.5421 61.4589 47.4787 61.3375 47.3519C61.2161 47.2251 61.1554 47.0417 61.1554 46.8016V45.8465H60.7709V45.5309H61.1554V44.936H61.5641V45.5309H62.1751V45.8465H61.5641V46.7692C61.5641 46.9122 61.5938 47.0201 61.6531 47.0929C61.7152 47.1658 61.815 47.2022 61.9526 47.2022C61.9957 47.2022 62.0376 47.1981 62.078 47.19C62.1185 47.1793 62.159 47.1671 62.1994 47.1536L62.2642 47.4612C62.2237 47.4855 62.1671 47.5043 62.0942 47.5178C62.0241 47.534 61.9566 47.5421 61.8919 47.5421Z" fill="#1C2C50"/>
<path d="M62.7492 48.0034L62.5712 47.8658C62.6332 47.7984 62.6791 47.7364 62.7087 47.6797C62.7384 47.623 62.7573 47.565 62.7654 47.5057H62.5428V47.0241H63.0244V47.3519C63.0244 47.476 63.0042 47.5893 62.9637 47.6918C62.9232 47.7971 62.8517 47.9009 62.7492 48.0034Z" fill="#1C2C50"/>
<path d="M65.6102 47.5421C65.3863 47.5421 65.1813 47.5138 64.9951 47.4571C64.809 47.3978 64.6512 47.3155 64.5217 47.2103L64.6552 46.8784C64.7901 46.981 64.9344 47.0579 65.0882 47.1091C65.242 47.1604 65.416 47.186 65.6102 47.186C65.8396 47.186 66.0082 47.1455 66.1161 47.0646C66.2267 46.981 66.282 46.8731 66.282 46.7409C66.282 46.6329 66.2429 46.548 66.1646 46.4859C66.0864 46.4212 65.9556 46.3699 65.7721 46.3321L65.3391 46.2431C65.0828 46.1892 64.8913 46.1001 64.7645 45.976C64.6404 45.8519 64.5783 45.6847 64.5783 45.4742C64.5783 45.3043 64.6228 45.1545 64.7119 45.0251C64.8036 44.8956 64.9304 44.7957 65.0923 44.7256C65.2541 44.6528 65.4403 44.6163 65.6507 44.6163C65.8449 44.6163 66.0244 44.646 66.1889 44.7054C66.3562 44.762 66.4978 44.8456 66.6138 44.9563L66.4762 45.2759C66.2469 45.0736 65.9704 44.9724 65.6467 44.9724C65.447 44.9724 65.2879 45.017 65.1691 45.106C65.0531 45.195 64.9951 45.3137 64.9951 45.4621C64.9951 45.5754 65.0316 45.6658 65.1044 45.7332C65.1772 45.8007 65.2986 45.8519 65.4686 45.887L65.8976 45.976C66.1673 46.0327 66.3683 46.1204 66.5005 46.2391C66.6327 46.3551 66.6988 46.5129 66.6988 46.7125C66.6988 46.8798 66.6543 47.0255 66.5653 47.1496C66.4762 47.2737 66.3508 47.3708 66.1889 47.4409C66.0271 47.5084 65.8342 47.5421 65.6102 47.5421Z" fill="#1C2C50"/>
<path d="M67.1402 47.5057V45.5309H67.5368V45.8506C67.5961 45.7373 67.6784 45.6496 67.7836 45.5875C67.8888 45.5255 68.0116 45.4945 68.1519 45.4945C68.454 45.4945 68.6496 45.6267 68.7386 45.891C68.8007 45.7669 68.8897 45.6698 69.0057 45.5997C69.1217 45.5295 69.2539 45.4945 69.4023 45.4945C69.8447 45.4945 70.066 45.7589 70.066 46.2876V47.5057H69.6572V46.3079C69.6572 46.1406 69.6276 46.0178 69.5682 45.9396C69.5116 45.8614 69.4171 45.8223 69.2849 45.8223C69.1366 45.8223 69.0192 45.8749 68.9329 45.9801C68.8465 46.0826 68.8034 46.2229 68.8034 46.4009V47.5057H68.3947V46.3079C68.3947 46.1406 68.3663 46.0178 68.3097 45.9396C68.253 45.8614 68.1586 45.8223 68.0264 45.8223C67.878 45.8223 67.7607 45.8749 67.6744 45.9801C67.5907 46.0826 67.5489 46.2229 67.5489 46.4009V47.5057H67.1402Z" fill="#1C2C50"/>
<path d="M71.2687 47.5421C71.1311 47.5421 71.0084 47.5151 70.9004 47.4612C70.7925 47.4072 70.7062 47.3344 70.6414 47.2427C70.5794 47.1509 70.5484 47.0471 70.5484 46.9311C70.5484 46.7854 70.5848 46.6707 70.6576 46.5871C70.7332 46.5035 70.8559 46.4428 71.0259 46.405C71.1985 46.3672 71.4306 46.3483 71.7219 46.3483H71.8595V46.2431C71.8595 46.0893 71.8271 45.9787 71.7624 45.9113C71.6976 45.8438 71.5911 45.8101 71.4427 45.8101C71.3294 45.8101 71.2161 45.8276 71.1028 45.8627C70.9895 45.8951 70.8735 45.9477 70.7548 46.0205L70.6293 45.7332C70.7318 45.6604 70.86 45.6024 71.0137 45.5592C71.1675 45.5161 71.3146 45.4945 71.4548 45.4945C71.7246 45.4945 71.9243 45.5592 72.0537 45.6887C72.1832 45.8155 72.248 46.0151 72.248 46.2876V47.5057H71.8636V47.1779C71.815 47.2912 71.7395 47.3802 71.6369 47.445C71.5344 47.5097 71.4117 47.5421 71.2687 47.5421ZM71.3496 47.2507C71.4953 47.2507 71.6167 47.1995 71.7138 47.097C71.8109 46.9945 71.8595 46.865 71.8595 46.7085V46.5992H71.726C71.529 46.5992 71.3739 46.6087 71.2606 46.6276C71.15 46.6464 71.0704 46.6788 71.0218 46.7247C70.976 46.7678 70.953 46.8285 70.953 46.9068C70.953 47.0093 70.9881 47.0929 71.0583 47.1577C71.1284 47.2197 71.2255 47.2507 71.3496 47.2507Z" fill="#1C2C50"/>
<path d="M72.8109 47.5057V45.5309H73.2075V45.883C73.31 45.6482 73.5231 45.5174 73.8469 45.4904L73.9804 45.4823L74.0088 45.8303L73.7619 45.8546C73.4031 45.8897 73.2237 46.0745 73.2237 46.409V47.5057H72.8109Z" fill="#1C2C50"/>
<path d="M75.2729 47.5421C75.0247 47.5421 74.8399 47.4787 74.7185 47.3519C74.5971 47.2251 74.5364 47.0417 74.5364 46.8016V45.8465H74.152V45.5309H74.5364V44.936H74.9451V45.5309H75.5562V45.8465H74.9451V46.7692C74.9451 46.9122 74.9748 47.0201 75.0342 47.0929C75.0962 47.1658 75.196 47.2022 75.3336 47.2022C75.3768 47.2022 75.4186 47.1981 75.4591 47.19C75.4995 47.1793 75.54 47.1671 75.5805 47.1536L75.6452 47.4612C75.6047 47.4855 75.5481 47.5043 75.4753 47.5178C75.4051 47.534 75.3377 47.5421 75.2729 47.5421Z" fill="#1C2C50"/>
<path d="M76.8161 47.5421C76.4924 47.5421 76.2375 47.4517 76.0513 47.271C75.8652 47.0875 75.7721 46.838 75.7721 46.5223C75.7721 46.32 75.8125 46.1419 75.8935 45.9882C75.9771 45.8317 76.0918 45.7103 76.2375 45.624C76.3831 45.5376 76.5504 45.4945 76.7392 45.4945C77.0117 45.4945 77.2262 45.5821 77.3827 45.7575C77.5392 45.9302 77.6174 46.1689 77.6174 46.4738V46.6114H76.1687C76.1983 47.0214 76.4155 47.2265 76.8202 47.2265C76.9335 47.2265 77.0441 47.2089 77.152 47.1739C77.2626 47.1388 77.3665 47.0808 77.4636 46.9998L77.585 47.2831C77.496 47.3641 77.3813 47.4275 77.241 47.4733C77.1008 47.5192 76.9591 47.5421 76.8161 47.5421ZM76.7554 45.7818C76.5855 45.7818 76.4506 45.8344 76.3508 45.9396C76.2509 46.0448 76.1902 46.1851 76.1687 46.3605H77.2734C77.2653 46.177 77.2168 46.0354 77.1277 45.9356C77.0387 45.833 76.9146 45.7818 76.7554 45.7818Z" fill="#1C2C50"/>
<path d="M78.063 47.5057V45.5309H78.4595V45.883C78.5621 45.6482 78.7752 45.5174 79.0989 45.4904L79.2325 45.4823L79.2608 45.8303L79.0139 45.8546C78.6551 45.8897 78.4757 46.0745 78.4757 46.409V47.5057H78.063Z" fill="#1C2C50"/>
<path d="M81.364 47.5057V46.1743L80.2714 44.6528H80.757L81.5826 45.8061L82.4081 44.6528H82.8735L81.7809 46.1784V47.5057H81.364Z" fill="#1C2C50"/>
<path d="M83.6196 47.5421C83.42 47.5421 83.2473 47.5003 83.1017 47.4167C82.956 47.333 82.8427 47.2157 82.7617 47.0646C82.6835 46.9108 82.6444 46.7287 82.6444 46.5183C82.6444 46.3079 82.6835 46.1271 82.7617 45.976C82.8427 45.8223 82.956 45.7036 83.1017 45.6199C83.2473 45.5363 83.42 45.4945 83.6196 45.4945C83.8139 45.4945 83.9838 45.5363 84.1295 45.6199C84.2752 45.7036 84.3885 45.8223 84.4695 45.976C84.5504 46.1271 84.5909 46.3079 84.5909 46.5183C84.5909 46.7287 84.5504 46.9108 84.4695 47.0646C84.3885 47.2157 84.2752 47.333 84.1295 47.4167C83.9838 47.5003 83.8139 47.5421 83.6196 47.5421ZM83.6196 47.2265C83.7869 47.2265 83.9218 47.1658 84.0243 47.0444C84.1268 46.923 84.1781 46.7476 84.1781 46.5183C84.1781 46.289 84.1268 46.115 84.0243 45.9963C83.9218 45.8749 83.7869 45.8142 83.6196 45.8142C83.4497 45.8142 83.3134 45.8749 83.2109 45.9963C83.1084 46.115 83.0572 46.289 83.0572 46.5183C83.0572 46.7476 83.1084 46.923 83.2109 47.0444C83.3134 47.1658 83.4497 47.2265 83.6196 47.2265Z" fill="#1C2C50"/>
<path d="M85.754 47.5421C85.2765 47.5421 85.0377 47.2764 85.0377 46.7449V45.5309H85.4465V46.749C85.4465 46.9081 85.4788 47.0255 85.5436 47.101C85.6083 47.1766 85.7108 47.2143 85.8511 47.2143C86.0049 47.2143 86.129 47.1631 86.2234 47.0605C86.3205 46.958 86.3691 46.8204 86.3691 46.6478V45.5309H86.7778V47.5057H86.3812V47.19C86.3165 47.3061 86.2302 47.3937 86.1223 47.4531C86.0143 47.5124 85.8916 47.5421 85.754 47.5421Z" fill="#1C2C50"/>
<path d="M38.5233 37.1181C38.5387 36.098 39.0952 35.6498 39.7754 35.6498C40.5328 35.6498 41.012 36.098 41.012 37.1644V40.0238H42.2796V37.1644C42.2796 35.6188 41.6458 34.6142 40.0845 34.6142C39.3734 34.6142 38.786 35.0006 38.5233 35.4952V34.7842H37.2402V40.0238H38.5233V37.1181ZM43.5334 38.0145C43.5334 39.1273 43.7343 40.0083 44.7391 40.0856C44.8473 40.101 44.9555 40.101 45.0792 40.101C45.2492 40.0856 45.4038 40.0392 45.6202 39.9465L45.5275 39.081C45.4811 39.081 45.4502 39.0964 45.4193 39.0964C44.8628 39.0964 44.8009 38.7564 44.8009 38.0145V34.7842H43.5334V38.0145ZM44.1826 32.4349C43.7343 32.4349 43.3942 32.7904 43.3942 33.2386C43.3942 33.6714 43.7343 34.0269 44.1826 34.0269C44.6309 34.0269 44.9864 33.6714 44.9864 33.2386C44.9864 32.7904 44.6309 32.4349 44.1826 32.4349ZM47.6864 37.1181C47.6864 36.0671 48.2274 35.6652 48.9076 35.6652C49.0931 35.6652 49.2786 35.7116 49.4486 35.7734L49.9742 34.7379C49.7578 34.6606 49.5104 34.6142 49.2476 34.6142C48.5366 34.6142 47.9492 35.0006 47.6864 35.4952V34.7842H46.4188V40.0238H47.6864V37.1181ZM52.8174 40.1938C54.6878 40.1938 55.6462 38.88 55.6462 37.3963C55.6462 35.9125 54.6878 34.6142 52.8174 34.6142C50.9624 34.6142 50.004 35.928 50.004 37.3963C50.004 38.8646 50.9624 40.1938 52.8174 40.1938ZM52.8174 39.2819C51.9363 39.2819 51.2716 38.54 51.2716 37.3963C51.2716 36.2834 51.9517 35.5416 52.8174 35.5416C53.6984 35.5416 54.3786 36.2834 54.3786 37.3963C54.3786 38.54 53.6984 39.2819 52.8174 39.2819ZM56.4351 37.4426C56.4351 38.9109 57.4245 40.2401 59.0012 40.2401C59.7895 40.2401 60.4233 39.8228 60.8098 39.1891V40.1474C60.8098 41.3066 59.975 41.9094 58.9084 41.9094C58.1201 41.9094 57.4863 41.5693 57.0225 40.9047L56.3269 41.4766C56.8834 42.4812 57.9809 42.8522 59.063 42.8522C60.8716 42.8522 62.0773 41.7857 62.0773 40.101V34.7842H60.8098V35.6807C60.4233 35.0315 59.805 34.6142 58.9857 34.6142C57.4245 34.6142 56.4351 35.9743 56.4351 37.4426ZM57.7027 37.4272C57.7027 36.4998 58.3519 35.7116 59.2485 35.7116C60.1605 35.7116 60.8098 36.5153 60.8098 37.4272C60.8098 38.3545 60.176 39.1273 59.2485 39.1273C58.3519 39.1273 57.7027 38.3854 57.7027 37.4272ZM63.1678 37.4426C63.1678 38.9109 64.1571 40.2401 65.7339 40.2401C66.5222 40.2401 67.156 39.8228 67.5424 39.1891V40.1474C67.5424 41.3066 66.7077 41.9094 65.6411 41.9094C64.8527 41.9094 64.219 41.5693 63.7552 40.9047L63.0596 41.4766C63.6161 42.4812 64.7136 42.8522 65.7957 42.8522C67.6043 42.8522 68.81 41.7857 68.81 40.101V34.7842H67.5424V35.6807C67.156 35.0315 66.5377 34.6142 65.7184 34.6142C64.1571 34.6142 63.1678 35.9743 63.1678 37.4426ZM64.4354 37.4272C64.4354 36.4998 65.0846 35.7116 65.9812 35.7116C66.8932 35.7116 67.5424 36.5153 67.5424 37.4272C67.5424 38.3545 66.9087 39.1273 65.9812 39.1273C65.0846 39.1273 64.4354 38.3854 64.4354 37.4272ZM75.4963 34.7842H74.1051L72.5439 38.1691L71.029 34.7842H69.6377L71.8637 39.4828L70.2097 42.8058H71.5391L75.4963 34.7842ZM75.6215 37.4426C75.6215 38.9109 76.611 40.2401 78.203 40.2401C78.9914 40.2401 79.6253 39.8228 79.9962 39.1891V40.0238H81.2484V34.7842H79.9962V35.6807C79.6097 35.0315 78.9914 34.6142 78.1874 34.6142C76.626 34.6142 75.6215 35.9743 75.6215 37.4426ZM76.9046 37.4272C76.9046 36.4998 77.5385 35.7116 78.4504 35.7116C79.3623 35.7116 79.9806 36.5153 79.9806 37.4272C79.9806 38.3391 79.3623 39.1273 78.4504 39.1273C77.5385 39.1273 76.9046 38.3854 76.9046 37.4272ZM83.9466 37.1181C83.9616 36.098 84.5182 35.6498 85.1982 35.6498C85.9561 35.6498 86.4349 36.098 86.4349 37.1644V40.0238H87.7027V37.1644C87.7027 35.6188 87.0688 34.6142 85.5074 34.6142C84.7968 34.6142 84.209 35.0006 83.9466 35.4952V34.7842H82.6632V40.0238H83.9466V37.1181Z" fill="#3567D6"/>
<path d="M23.1855 137H241.186" stroke="#DEDEDE"/>
<rect x="23.1855" y="123" width="216" height="3" fill="#C4C4C4"/>
<rect x="23.1855" y="117" width="216" height="3" fill="#C4C4C4"/>
<rect x="23.1855" y="129" width="109" height="3" fill="#C4C4C4"/>
<rect x="23.1855" y="166" width="73" height="2" rx="1" fill="#AEAEAE"/>
<rect x="23.1855" y="198" width="73" height="2" rx="1" fill="#AEAEAE"/>
<rect x="23.1855" y="158" width="216" height="5" fill="#E9E8E6"/>
<path d="M25.1855 177H54.1855V183H25.1855L23.6855 180L25.1855 177Z" fill="#DC4437"/>
<path d="M118.612 183L88.1855 183L88.1855 177L118.612 177L120.186 180L118.612 183Z" fill="#DC4437"/>
<rect x="56.1855" y="177" width="30" height="6" fill="#109D59"/>
<rect x="56.1855" y="209" width="30" height="6" fill="#F5B400"/>
<rect x="89.1855" y="209" width="30" height="6" fill="#DC4437"/>
<rect x="23.1855" y="209" width="30" height="6" fill="#109D59"/>
<rect x="138.186" y="167" width="101" height="3" fill="#C4C4C4"/>
<rect x="138.186" y="197" width="101" height="3" fill="#C4C4C4"/>
<rect x="138.186" y="179" width="101" height="3" fill="#C4C4C4"/>
<rect x="138.186" y="209" width="101" height="3" fill="#C4C4C4"/>
<rect x="138.186" y="173" width="101" height="3" fill="#C4C4C4"/>
<rect x="138.186" y="203" width="101" height="3" fill="#C4C4C4"/>
<rect x="138.186" y="185" width="51" height="3" fill="#C4C4C4"/>
<rect x="138.186" y="215" width="51" height="3" fill="#C4C4C4"/>
<rect x="23.1855" y="241" width="216" height="3" fill="#C4C4C4"/>
<rect x="61.1855" y="281" width="69" height="3" fill="#C4C4C4"/>
<rect x="181.186" y="280" width="58" height="3" fill="#C4C4C4"/>
<rect x="23.1855" y="247" width="216" height="3" fill="#C4C4C4"/>
<rect x="61.1855" y="287" width="69" height="3" fill="#C4C4C4"/>
<rect x="181.186" y="286" width="58" height="3" fill="#C4C4C4"/>
<rect x="23.1855" y="253" width="216" height="3" fill="#C4C4C4"/>
<rect x="61.1855" y="293" width="69" height="3" fill="#C4C4C4"/>
<rect x="181.186" y="292" width="58" height="3" fill="#C4C4C4"/>
<rect x="23.1855" y="259" width="145" height="3" fill="#C4C4C4"/>
<rect x="61.1855" y="299" width="49" height="3" fill="#C4C4C4"/>
<rect x="181.186" y="298" width="41" height="3" fill="#C4C4C4"/>
<rect x="23.1855" y="279" width="31" height="27" fill="#C4C4C4"/>
<rect x="143.186" y="278" width="31" height="27" fill="#C4C4C4"/>
<path d="M217.652 69.022V59.9999H214.558V69.022H217.652ZM213.63 69.022V59.9999H212.083V69.022H213.63ZM211.464 69.022V59.9999H210.845V69.022H211.464ZM210.226 69.022V59.9999H208.37V69.022H210.226ZM207.751 69.022V59.9999H207.132V69.022H207.751ZM205.894 69.022V59.9999H205.275V69.022H205.894ZM204.347 69.022V59.9999H203.728V69.022H204.347ZM203.109 69.022V59.9999H202.491V69.022H203.109ZM201.253 69.022V59.9999H198.778V69.022H201.253ZM197.849 69.022V59.9999H195.993V69.022H197.849ZM194.755 69.022V59.9999H194.136V69.022H194.755ZM193.517 69.022V59.9999H192.28V69.022H193.517ZM191.661 69.022V59.9999H189.186V69.022H191.661Z" fill="black"/>
<path d="M236.837 69.0222V60.0001H234.98V69.0222H236.837ZM234.362 69.0222V60.0001H233.743V69.0222H234.362ZM232.505 69.0222V60.0001H231.886V69.0222H232.505ZM230.958 69.0222V60.0001H230.339V69.0222H230.958ZM229.72 69.0222V60.0001H229.102V69.0222H229.72ZM227.864 69.0222V60.0001H225.388V69.0222H227.864ZM224.46 69.0222V60.0001H222.604V69.0222H224.46ZM221.366 69.0222V60.0001H220.747V69.0222H221.366ZM220.128 69.0222V60.0001H218.891V69.0222H220.128Z" fill="black"/>
<path d="M189.594 77.92V77.256C189.727 77.1387 189.922 76.9707 190.178 76.752C190.434 76.5333 190.628 76.3653 190.762 76.248C190.9 76.1253 191.071 75.9707 191.274 75.784C191.476 75.592 191.634 75.4293 191.746 75.296C191.858 75.1573 191.972 75.0027 192.09 74.832C192.308 74.5227 192.418 74.2133 192.418 73.904C192.418 73.2427 192.103 72.912 191.474 72.912C191.159 72.912 190.914 73.0133 190.738 73.216C190.567 73.4133 190.476 73.68 190.466 74.016H189.586C189.602 73.408 189.783 72.944 190.13 72.624C190.482 72.2987 190.938 72.136 191.498 72.136C192.058 72.136 192.5 72.2933 192.826 72.608C193.156 72.9227 193.322 73.3387 193.322 73.856C193.322 74.2453 193.218 74.616 193.01 74.968C192.898 75.1493 192.791 75.312 192.69 75.456C192.588 75.5947 192.447 75.7547 192.266 75.936C192.084 76.1173 191.94 76.2587 191.834 76.36C191.727 76.4613 191.57 76.6027 191.362 76.784C191.159 76.9653 191.02 77.0907 190.946 77.16H193.482V77.92H189.594ZM195.835 72.392C196.112 72.2427 196.448 72.168 196.843 72.168C197.237 72.168 197.573 72.2427 197.851 72.392C198.128 72.536 198.341 72.744 198.491 73.016C198.645 73.288 198.755 73.592 198.819 73.928C198.888 74.2587 198.923 74.64 198.923 75.072C198.923 75.504 198.888 75.888 198.819 76.224C198.755 76.5547 198.645 76.8587 198.491 77.136C198.341 77.408 198.128 77.6187 197.851 77.768C197.573 77.912 197.237 77.984 196.843 77.984C196.448 77.984 196.112 77.912 195.835 77.768C195.557 77.6187 195.341 77.408 195.187 77.136C195.037 76.8587 194.928 76.5547 194.859 76.224C194.795 75.888 194.763 75.504 194.763 75.072C194.763 74.64 194.795 74.2587 194.859 73.928C194.928 73.592 195.037 73.288 195.187 73.016C195.341 72.744 195.557 72.536 195.835 72.392ZM196.843 73C196.587 73 196.376 73.056 196.211 73.168C196.045 73.2747 195.925 73.4347 195.851 73.648C195.723 74.016 195.659 74.4907 195.659 75.072C195.659 75.6587 195.723 76.136 195.851 76.504C196 76.936 196.331 77.152 196.843 77.152C197.355 77.152 197.685 76.936 197.835 76.504C197.963 76.136 198.027 75.6587 198.027 75.072C198.027 74.4907 197.963 74.016 197.835 73.648C197.685 73.216 197.355 73 196.843 73ZM200.992 78V73.152H200.248V72.32H201.912V78H200.992ZM204.269 78V73.152H203.525V72.32H205.189V78H204.269ZM207.993 72.392C208.271 72.2427 208.607 72.168 209.001 72.168C209.396 72.168 209.732 72.2427 210.009 72.392C210.287 72.536 210.5 72.744 210.649 73.016C210.804 73.288 210.913 73.592 210.977 73.928C211.047 74.2587 211.081 74.64 211.081 75.072C211.081 75.504 211.047 75.888 210.977 76.224C210.913 76.5547 210.804 76.8587 210.649 77.136C210.5 77.408 210.287 77.6187 210.009 77.768C209.732 77.912 209.396 77.984 209.001 77.984C208.607 77.984 208.271 77.912 207.993 77.768C207.716 77.6187 207.5 77.408 207.345 77.136C207.196 76.8587 207.087 76.5547 207.017 76.224C206.953 75.888 206.921 75.504 206.921 75.072C206.921 74.64 206.953 74.2587 207.017 73.928C207.087 73.592 207.196 73.288 207.345 73.016C207.5 72.744 207.716 72.536 207.993 72.392ZM209.001 73C208.745 73 208.535 73.056 208.369 73.168C208.204 73.2747 208.084 73.4347 208.009 73.648C207.881 74.016 207.817 74.4907 207.817 75.072C207.817 75.6587 207.881 76.136 208.009 76.504C208.159 76.936 208.489 77.152 209.001 77.152C209.513 77.152 209.844 76.936 209.993 76.504C210.121 76.136 210.185 75.6587 210.185 75.072C210.185 74.4907 210.121 74.016 209.993 73.648C209.844 73.216 209.513 73 209.001 73ZM212.454 77.92V77.256C212.588 77.1387 212.782 76.9707 213.038 76.752C213.294 76.5333 213.489 76.3653 213.622 76.248C213.761 76.1253 213.932 75.9707 214.134 75.784C214.337 75.592 214.494 75.4293 214.606 75.296C214.718 75.1573 214.833 75.0027 214.95 74.832C215.169 74.5227 215.278 74.2133 215.278 73.904C215.278 73.2427 214.964 72.912 214.334 72.912C214.02 72.912 213.774 73.0133 213.598 73.216C213.428 73.4133 213.337 73.68 213.326 74.016H212.446C212.462 73.408 212.644 72.944 212.99 72.624C213.342 72.2987 213.798 72.136 214.358 72.136C214.918 72.136 215.361 72.2933 215.686 72.608C216.017 72.9227 216.182 73.3387 216.182 73.856C216.182 74.2453 216.078 74.616 215.87 74.968C215.758 75.1493 215.652 75.312 215.55 75.456C215.449 75.5947 215.308 75.7547 215.126 75.936C214.945 76.1173 214.801 76.2587 214.694 76.36C214.588 76.4613 214.43 76.6027 214.222 76.784C214.02 76.9653 213.881 77.0907 213.806 77.16H216.342V77.92H212.454ZM218.696 72.392C218.973 72.2427 219.309 72.168 219.704 72.168C220.098 72.168 220.434 72.2427 220.712 72.392C220.989 72.536 221.202 72.744 221.352 73.016C221.506 73.288 221.616 73.592 221.68 73.928C221.749 74.2587 221.784 74.64 221.784 75.072C221.784 75.504 221.749 75.888 221.68 76.224C221.616 76.5547 221.506 76.8587 221.352 77.136C221.202 77.408 220.989 77.6187 220.712 77.768C220.434 77.912 220.098 77.984 219.704 77.984C219.309 77.984 218.973 77.912 218.696 77.768C218.418 77.6187 218.202 77.408 218.048 77.136C217.898 76.8587 217.789 76.5547 217.72 76.224C217.656 75.888 217.624 75.504 217.624 75.072C217.624 74.64 217.656 74.2587 217.72 73.928C217.789 73.592 217.898 73.288 218.048 73.016C218.202 72.744 218.418 72.536 218.696 72.392ZM219.704 73C219.448 73 219.237 73.056 219.072 73.168C218.906 73.2747 218.786 73.4347 218.712 73.648C218.584 74.016 218.52 74.4907 218.52 75.072C218.52 75.6587 218.584 76.136 218.712 76.504C218.861 76.936 219.192 77.152 219.704 77.152C220.216 77.152 220.546 76.936 220.696 76.504C220.824 76.136 220.888 75.6587 220.888 75.072C220.888 74.4907 220.824 74.016 220.696 73.648C220.546 73.216 220.216 73 219.704 73ZM223.157 77.92V77.256C223.29 77.1387 223.485 76.9707 223.741 76.752C223.997 76.5333 224.191 76.3653 224.325 76.248C224.463 76.1253 224.634 75.9707 224.837 75.784C225.039 75.592 225.197 75.4293 225.309 75.296C225.421 75.1573 225.535 75.0027 225.653 74.832C225.871 74.5227 225.981 74.2133 225.981 73.904C225.981 73.2427 225.666 72.912 225.037 72.912C224.722 72.912 224.477 73.0133 224.301 73.216C224.13 73.4133 224.039 73.68 224.029 74.016H223.149C223.165 73.408 223.346 72.944 223.693 72.624C224.045 72.2987 224.501 72.136 225.061 72.136C225.621 72.136 226.063 72.2933 226.389 72.608C226.719 72.9227 226.885 73.3387 226.885 73.856C226.885 74.2453 226.781 74.616 226.573 74.968C226.461 75.1493 226.354 75.312 226.253 75.456C226.151 75.5947 226.01 75.7547 225.829 75.936C225.647 76.1173 225.503 76.2587 225.397 76.36C225.29 76.4613 225.133 76.6027 224.925 76.784C224.722 76.9653 224.583 77.0907 224.509 77.16H227.045V77.92H223.157ZM228.31 73.608C228.342 73.112 228.531 72.7253 228.878 72.448C229.23 72.1707 229.681 72.032 230.23 72.032C230.785 72.032 231.219 72.176 231.534 72.464C231.854 72.7467 232.014 73.1093 232.014 73.552C232.014 73.8827 231.926 74.1653 231.75 74.4C231.574 74.6347 231.363 74.792 231.118 74.872V74.904C231.433 75 231.678 75.176 231.854 75.432C232.03 75.6827 232.118 76.0267 232.118 76.464C232.118 76.9013 231.953 77.272 231.622 77.576C231.297 77.88 230.841 78.032 230.254 78.032C229.673 78.032 229.195 77.8853 228.822 77.592C228.454 77.2933 228.257 76.8667 228.23 76.312H229.11C229.131 76.5947 229.241 76.8267 229.438 77.008C229.635 77.184 229.899 77.272 230.23 77.272C230.561 77.272 230.814 77.184 230.99 77.008C231.166 76.8267 231.254 76.5947 231.254 76.312C231.254 75.9387 231.134 75.6747 230.894 75.52C230.659 75.36 230.297 75.28 229.806 75.28H229.598V74.528H229.814C230.699 74.5173 231.142 74.2267 231.142 73.656C231.142 73.4 231.059 73.1973 230.894 73.048C230.729 72.8933 230.494 72.816 230.19 72.816C229.891 72.816 229.659 72.8933 229.494 73.048C229.329 73.1973 229.23 73.384 229.198 73.608H228.31ZM233.796 72.152H237.316V72.952H234.636V74.544C234.748 74.3947 234.913 74.2693 235.132 74.168C235.356 74.0667 235.615 74.016 235.908 74.016C236.207 74.016 236.481 74.0747 236.732 74.192C236.988 74.3093 237.183 74.4667 237.316 74.664C237.583 75.048 237.716 75.48 237.716 75.96C237.716 76.568 237.543 77.0613 237.196 77.44C236.849 77.8133 236.367 78 235.748 78C235.135 78 234.652 77.856 234.3 77.568C233.948 77.28 233.737 76.8987 233.668 76.424H234.556C234.615 76.6747 234.745 76.8747 234.948 77.024C235.151 77.168 235.423 77.24 235.764 77.24C236.105 77.24 236.369 77.1253 236.556 76.896C236.748 76.6667 236.844 76.3627 236.844 75.984C236.844 75.6 236.748 75.3067 236.556 75.104C236.364 74.896 236.081 74.792 235.708 74.792C235.447 74.792 235.225 74.8587 235.044 74.992C234.868 75.12 234.74 75.296 234.66 75.52H233.796V72.152Z" fill="black"/>
<line x1="8.5" y1="344.5" x2="385.5" y2="344.5" stroke="#B0ABAB" stroke-width="3" stroke-linecap="round"/>
<path d="M311.105 163.549C308.339 162.274 311.642 153.344 312.715 151.04C321.967 131.197 325.438 117.091 329.323 114.059C329.863 113.16 343.229 108.46 341.458 121.814C341.079 126.352 323.28 159.297 319.605 165.49C319.605 165.491 316.817 166.691 311.105 163.549Z" fill="#F7B6A0"/>
<path d="M312.711 164.511C299.956 157.838 299.912 148.216 289.112 129.569L291.726 127.175C294.557 129.548 314.279 152.415 318.253 152.571C318.255 152.571 322.502 164.181 312.711 164.511Z" fill="#F7B6A0"/>
<path d="M321.424 125.18L312.972 147.416C312.972 147.416 309.895 157.304 311.404 163.788C311.404 163.788 314.904 168.037 320.338 165.476L342.233 125.935C342.233 125.935 347.296 108.118 331.318 112.528C331.318 112.528 324.475 113.797 321.424 125.18Z" fill="#E6F5FE"/>
<path d="M352.103 201.077C354.281 209.053 361.226 214.187 369.006 213.907" stroke="#21263D" stroke-width="0.553104" stroke-miterlimit="10" stroke-linecap="round" stroke-linejoin="round"/>
<path d="M324.008 323.094L325.245 339.36L331.815 339.357L333.26 323.07L324.008 323.094Z" fill="#F7B6A0"/>
<path d="M334.163 342.652L304.558 342.658C304.89 339.543 307.213 338.852 307.213 338.852L318.599 336.515L325.262 332.362L327.78 333.621C327.78 333.621 328.287 333.526 327.78 334.811C327.78 334.811 330.961 335.497 332.455 334.81L334.164 342.948" fill="#222221"/>
<path d="M334.165 343.889L304.557 343.895V342.659L334.163 342.652L334.165 343.889Z" fill="#241A2A"/>
<path d="M363.679 317.635L362.483 333.905L355.912 333.919L354.427 317.635H363.679Z" fill="#F7B6A0"/>
<path d="M355.754 332.19L356.656 330.74H361.637L362.578 332.614L367.131 341.023V344.795H353.215V341.21L355.754 332.19Z" fill="#222221"/>
<path d="M374.771 213.104C375.765 209.073 374.882 198.449 374.673 197.363L372.742 182.019L327.241 182.5L326.145 201.685L326.718 213.104H374.771Z" fill="#3567D6"/>
<path d="M366.634 332.373L369.455 253.101L375.397 204.909C372.498 184.533 343.327 194.595 343.327 194.595L343.458 203.959L349.269 261.271L352.041 333.76C352.041 333.762 361.848 338.477 366.634 332.373Z" fill="#3567D6"/>
<path d="M329.759 187.805C342.073 188.56 343.523 188.181 349.801 188.056C353.197 187.988 361.632 188.56 371.05 187.05" stroke="#21263D" stroke-width="0.553104" stroke-miterlimit="10" stroke-linecap="round" stroke-linejoin="round"/>
<path d="M357.286 194.344C360.646 200.978 365.02 204.406 372.258 204.406" stroke="#21263D" stroke-width="0.553104" stroke-miterlimit="10" stroke-linecap="round" stroke-linejoin="round"/>
<path d="M326.144 201.683L320.792 333.761C320.792 333.761 326.172 339.355 334.865 335.206L345.302 255.769L353.664 202.394H326.166" fill="#3567D6"/>
<path d="M335.44 198.288C339.303 201.809 342.098 201.771 343.457 203.959C344.661 205.896 343.608 208.672 343.871 210.802C346.596 232.908 347.714 238.177 349.364 263.805L351.366 316.163" stroke="#004D85" stroke-width="0.553104" stroke-miterlimit="10" stroke-linecap="round" stroke-linejoin="round"/>
<path d="M358.095 92.6372C358.243 92.1002 358.372 91.6328 358.478 91.2819C360.263 85.4142 361.429 71.1481 354.824 69.3072C346.907 67.1002 348.333 80.1606 348.226 83.8349C348.101 88.081 348.189 92.6327 350.195 96.4174C350.951 97.8423 352.698 99.9555 354.34 99.65C356.158 99.3111 357.379 95.1936 358.095 92.6372Z" fill="#192E35"/>
<path d="M358.22 88.1449C358.25 90.2385 357.134 92.6119 355.326 93.4801C352.873 94.66 351.93 92.3169 351.927 90.0237C351.927 88.1767 352.704 84.991 354.715 84.3345C356.611 83.7158 358.195 86.4265 358.22 88.1449Z" fill="#F7B6A0"/>
<path d="M355.123 91.9219L341.717 91.931L341.731 109.3L355.136 109.287L355.123 91.9219Z" fill="#F7B6A0"/>
<path d="M351.039 101.538C352.382 98.5959 353.182 95.6219 352.957 91.9219L341.717 91.931L341.728 107.028C345.258 106.46 349.606 104.672 351.039 101.538Z" fill="#F2937C"/>
<path d="M336.4 111.742L342.071 107.331H354.68L361.489 111.742H336.4Z" fill="#F7B6A0"/>
<path d="M325.847 155.231C325.702 163.348 324.944 169.628 324.799 177.744C324.715 182.525 323.87 198.587 325.294 204.618C326.772 210.87 328.795 199.84 333.743 198.566C334.891 198.271 336.011 197.862 337.161 197.587C341.554 196.539 344.679 200.684 348.741 201.926C352.711 203.142 356.794 205.004 360.827 205.686C365.11 206.411 369.974 205.182 374.108 203.877C378.274 202.561 378.721 201.311 377.949 197.359C377.586 195.495 377.561 193.482 377.371 191.591C376.813 186.018 376.256 180.444 375.7 174.87C374.964 167.499 375.229 158.975 373.392 151.797L376.153 121.61C377.12 115.573 372.035 113.614 372.035 113.614L355.133 106.45C347.997 112.051 341.728 107.028 341.728 107.028L329.392 113.546C329.392 113.546 325.38 115.931 324.474 123.667L325.847 155.231Z" fill="#2C6496"/>
<path d="M338.815 77.5226C335.563 79.297 336.364 82.6204 336.095 85.9331C335.984 87.2945 335.597 88.6302 335.42 89.9553C334.598 88.5985 334.118 84.0604 334.005 82.4812C333.297 72.676 336.222 66.5981 334.225 75.5562C333.759 77.6406 339.357 71.1588 341.317 70.5341C344.109 69.6431 343.331 72.2585 342.672 75.3716L338.815 77.5226Z" fill="#192E35"/>
<path d="M354.252 92.9897C353.483 96.1361 352.228 98.8014 349.741 100.898C347.306 102.948 344.679 104.185 341.852 102.334C339.603 100.86 337.969 98.4883 336.911 96.0196C334.471 90.3365 334.75 81.9774 337.766 76.7254C341.077 70.9561 348.878 71.0862 352.564 76.5242C355.565 80.9518 355.497 87.9117 354.252 92.9897Z" fill="#F7B6A0"/>
<path d="M356.361 85.3312C355.351 86.0754 355.169 88.1266 356.001 90.1687" stroke="#F2937C" stroke-width="0.554701" stroke-miterlimit="10" stroke-linecap="round" stroke-linejoin="round"/>
<path d="M357.458 87.0252C356.898 86.8603 356.034 86.7695 355.563 87.1704" stroke="#F2937C" stroke-width="0.554701" stroke-miterlimit="10" stroke-linecap="round" stroke-linejoin="round"/>
<path d="M354.823 69.3074C355.559 69.3058 354.981 72.0498 355.657 72.4704C357.162 73.4067 355.792 74.6774 356.24 76.2808C356.807 78.2987 357.242 80.3544 357.586 82.4253C357.721 83.2361 357.671 84.3993 357.978 85.1617C357.621 84.2768 356.249 82.7793 355.061 84.2087C354.566 84.8047 354.499 87.4686 354.303 88.2007C354.043 89.1749 353.817 88.8406 353.002 88.951C352.597 86.2191 352.435 78.3441 349.609 78.4303C346.139 78.5332 333.399 82.091 333.175 75.65C333.05 72.0317 335.25 67.7251 340.686 67.5738C340.688 67.5738 350.743 65.4742 354.823 69.3074Z" fill="#192E35"/>
<path d="M279.123 121.288C278.69 121.685 279.377 122.346 279.65 122.664C281.819 125.205 287.63 131.115 290.33 129.849C294.189 128.039 293.118 117.237 292.26 115.668C290.919 115.609 291.047 119.536 290.569 121.643C287.808 118.801 285.473 111.912 283.8 111.075C281.856 111.289 285.483 116.155 286.048 119.605C282.545 114.019 280.546 111.01 279.917 111.505C278.523 112.012 282.435 118.742 284.204 120.953C281.88 118.533 280.273 116.51 279.187 115.545C278.551 114.98 278.022 115.48 278.022 115.48C277.646 116.824 282.114 121.747 283.389 123.296C282.36 123.032 281.487 122.021 280.566 121.514C280.238 121.334 279.589 120.968 279.199 121.229C279.172 121.247 279.146 121.266 279.123 121.288Z" fill="#F7B6A0"/>
<path d="M357.156 107.306L350.404 125.449C350.404 125.449 348.573 143.146 348.943 159.16L357.603 236.79C357.603 236.79 375.392 233.663 381.548 226.494L376.321 159.16L377.021 120.368C377.021 120.368 377.745 116.028 371.407 113.104L357.156 107.306Z" fill="white"/>
<path d="M390.787 165.24C388.23 166.924 382.952 159.091 381.713 156.878C371.049 137.82 361.739 126.959 361.486 121.906C361.071 120.938 364.771 106.757 374.428 115.73C377.835 118.586 394.18 152.337 397.07 158.966C397.071 158.967 396.473 162.05 390.787 165.24Z" fill="#F7B6A0"/>
<path d="M397.072 158.967C396.437 173.821 386.89 184.28 374.966 202.169L371.801 200.662C372.723 197 385.833 162.419 384.346 158.577C384.346 158.577 392.783 149.792 397.072 158.967Z" fill="#F7B6A0"/>
<path d="M373.331 209.527C375.86 206.562 376.334 202.91 376.322 200.516C375.982 197.959 374.692 197.766 373.071 197.578C371.944 197.446 371.408 197.775 370.576 198.316C369.938 198.871 368.795 199.392 368.795 199.392C366.032 200.92 364.312 201.85 364.312 201.85C364.312 201.85 362.532 202.6 362.741 203.409C363.078 204.703 365.06 203.774 365.06 203.774L366.538 203.319C367.375 203.028 366.896 203.85 366.896 203.85L366.196 205.438C365.352 208.217 360.758 210.631 360.653 210.561C363.373 212.482 367.472 208.242 367.472 208.242C367.472 208.242 365.51 210.796 362.102 212.076C362.102 212.076 360.193 213.635 362.979 213.605C362.979 213.605 367.439 212.396 369.543 209.093C369.543 209.093 368.512 211.752 364.87 213.617C364.87 213.617 363.989 215.111 365.782 215.027C365.782 215.027 370.447 212.042 371.346 209.633C371.346 209.633 370.501 211.861 368.878 213.514C368.878 213.514 368.732 214.652 369.926 214.243C369.927 214.245 372.724 211.354 373.331 209.527Z" fill="#F7B6A0"/>
<path d="M336.399 109.843L339.281 128.474L331.202 238.947C331.202 238.947 325.768 238.192 320.335 232.344L322.87 201.077L323.956 121.971C323.956 121.971 324.472 116.436 328.456 113.742L336.399 109.843Z" fill="white"/>
<path d="M287.397 131.689C287.397 131.689 289.276 126.748 293.518 126.877L314.37 147.418C314.37 147.418 325.529 158.416 320.337 165.476C320.337 165.476 310.026 174.395 293.518 144.017L287.397 131.689Z" fill="#E6F5FE"/>
<path d="M366.049 111.075C366.049 111.075 358.219 113.226 361.456 128.984L381.018 161.171L371.05 194.344C371.05 194.344 372.169 200.564 379.576 201.077C379.576 201.077 400.613 170.099 397.407 157.631L376.322 116.855C376.322 116.855 374.396 113.293 366.049 111.075Z" fill="white"/>
<path d="M368.269 205.489C370.748 204.675 373.816 203.014 376.443 203.262C377.151 205.92 377.665 208.543 377.922 211.281C378.147 213.677 377.987 216.698 378.616 219.011C376.611 220.998 373.167 221.623 370.684 222.652C368.114 223.715 365.31 226.108 362.474 225.614C359.5 225.095 359.685 220.876 359.282 218.067C358.957 215.807 356.942 210.236 358.443 208.39C359.825 206.688 366.162 206.18 368.269 205.489Z" fill="white"/>
<path d="M333.304 113.243C333.175 114.467 330.713 127.968 331.026 128.951C331.451 130.285 333.535 130.512 335.052 130.707C333.638 132.595 331.037 133.05 330.979 135.436C330.924 137.706 334.599 159.625 335.052 161.839" stroke="#CDE0EB" stroke-width="0.553104" stroke-miterlimit="10" stroke-linecap="round" stroke-linejoin="round"/>
<path d="M357.36 113.47C357.411 114.7 359.01 128.34 358.635 129.299C358.125 130.601 356.032 130.683 354.507 130.774C355.799 132.755 358.365 133.389 358.272 135.773C358.182 138.042 353.125 159.66 352.529 161.838" stroke="#CDE0EB" stroke-width="0.553104" stroke-miterlimit="10" stroke-linecap="round" stroke-linejoin="round"/>
<path d="M357.885 208.005C361.503 207.547 364.955 206.271 368.509 205.488C371.058 204.927 374.117 204.107 376.237 202.47" stroke="#21263D" stroke-width="0.553104" stroke-miterlimit="10" stroke-linecap="round" stroke-linejoin="round"/>
<path d="M358.852 212.785C359.875 216.94 359.893 221.437 361.308 225.319C365.67 225.585 370.228 223.708 374.064 221.84C379.061 219.407 377.106 216.011 376.963 211.024" stroke="#21263D" stroke-width="0.553104" stroke-miterlimit="10" stroke-linecap="round" stroke-linejoin="round"/>
<path d="M324.079 204.987C326.469 206.324 328.949 206.863 331.564 207.754" stroke="#21263D" stroke-width="0.553104" stroke-miterlimit="10" stroke-linecap="round" stroke-linejoin="round"/>
<path d="M330.115 211.024C330.115 213.921 330.594 220.103 328.606 222.295C327.053 224.01 321.23 220.952 321.422 220.584" stroke="#21263D" stroke-width="0.553104" stroke-miterlimit="10" stroke-linecap="round" stroke-linejoin="round"/>
<path d="M324.08 132.789C324.08 144.01 323.088 174.531 323.082 185.753" stroke="#21263D" stroke-width="0.553104" stroke-miterlimit="10" stroke-linecap="round" stroke-linejoin="round"/>
<path d="M361.507 115.432C359.201 122.77 359.87 127.175 365.726 136.011" stroke="#21263D" stroke-width="0.553104" stroke-miterlimit="10" stroke-linecap="round" stroke-linejoin="round"/>
<path d="M375.754 152.411C377.219 155.701 380.784 162.641 384.447 163.228" stroke="#21263D" stroke-width="0.553104" stroke-miterlimit="10" stroke-linecap="round" stroke-linejoin="round"/>
<path d="M380.343 160.46C381.538 162.366 382.01 164.316 382.516 166.246" stroke="#21263D" stroke-width="0.553104" stroke-miterlimit="10" stroke-linecap="round" stroke-linejoin="round"/>
<path d="M293.517 126.875C295.69 128.403 298.025 131.173 299.871 132.772C302.146 134.744 304.134 137.121 306.216 139.201C310.391 143.373 315.068 145.843 314.661 155.17" stroke="#21263D" stroke-width="0.553104" stroke-miterlimit="10" stroke-linecap="round" stroke-linejoin="round"/>
<path d="M332.743 145.009C332.723 145.334 332.419 146.071 332.107 146.05L330.382 145.433C330.07 145.411 329.833 145.129 329.855 144.803C329.875 144.478 330.147 144.233 330.459 144.256L332.239 144.033C332.553 144.055 332.765 144.684 332.743 145.009Z" fill="#21263D"/>
<path d="M335.012 145.171C334.992 145.496 335.195 146.269 335.506 146.292L337.298 145.926C337.608 145.949 337.88 145.704 337.902 145.377C337.922 145.052 337.687 144.77 337.375 144.748L335.639 144.274C335.326 144.253 335.032 144.846 335.012 145.171Z" fill="#21263D"/>
<path d="M337.54 145.425C339.981 145.599 340.734 142.541 340.734 142.541C341.916 136.147 337.062 125.938 337.062 125.938C336.395 124.522 335.324 124.733 335.324 124.733C335.324 124.733 334.289 124.372 333.444 125.679C333.444 125.679 327.297 135.101 327.628 141.604C327.628 141.604 327.975 144.74 330.416 144.916" stroke="#21263D" stroke-width="0.276552" stroke-miterlimit="10"/>
<path d="M339.282 107.933C335.44 109.537 334.897 122.684 334.896 124.691" stroke="#21263D" stroke-width="0.276552" stroke-miterlimit="10"/>
<path d="M357.155 107.306C360.552 109.299 359.698 112.895 359.245 116.832C359.05 118.522 358.282 122.717 356.213 129.596" stroke="#21263D" stroke-width="0.276552" stroke-miterlimit="10" stroke-linecap="round" stroke-linejoin="round"/>
<path d="M353.438 132.705C352.097 132.098 351.483 130.475 352.066 129.079C352.648 127.684 354.206 127.043 355.546 127.649L356.79 128.212L354.682 133.268L353.438 132.705Z" fill="#93B2C4"/>
<path d="M358.059 131.793C357.477 133.189 355.917 133.829 354.578 133.222C353.238 132.615 352.624 130.992 353.206 129.596C353.788 128.2 355.346 127.56 356.687 128.167C358.027 128.773 358.641 130.398 358.059 131.793Z" fill="#A6CADF"/>
<path d="M356.845 131.243C356.555 131.941 355.775 132.261 355.106 131.957C354.436 131.655 354.129 130.842 354.419 130.145C354.711 129.448 355.491 129.127 356.16 129.43C356.829 129.734 357.137 130.546 356.845 131.243Z" fill="#6E9FB7"/>
<path d="M356.689 128.167C355.333 127.554 353.49 128.351 353.042 129.705C352.565 131.138 353.03 133.227 355.936 133.431" stroke="#21263D" stroke-width="0.276552" stroke-miterlimit="10" stroke-linecap="round"/>
<path d="M355.988 127.964C354.437 127.262 353.453 127.339 352.661 128.264C351.964 129.079 351.678 130.327 352.086 131.363C352.246 131.77 352.68 132.622 354.43 133.081" stroke="#21263D" stroke-width="0.276552" stroke-miterlimit="10" stroke-linecap="round"/>
<path d="M357.579 128.845C358.394 129.412 358.402 131.363 357.716 131.991" stroke="#21263D" stroke-width="0.276552" stroke-miterlimit="10" stroke-linecap="round"/>
<defs>
<filter id="filter0_d_408_541" x="0.185547" y="0" width="262" height="357" filterUnits="userSpaceOnUse" color-interpolation-filters="sRGB">
<feFlood flood-opacity="0" result="BackgroundImageFix"/>
<feColorMatrix in="SourceAlpha" type="matrix" values="0 0 0 0 0 0 0 0 0 0 0 0 0 0 0 0 0 0 127 0" result="hardAlpha"/>
<feOffset/>
<feGaussianBlur stdDeviation="7"/>
<feComposite in2="hardAlpha" operator="out"/>
<feColorMatrix type="matrix" values="0 0 0 0 0 0 0 0 0 0 0 0 0 0 0 0 0 0 0.25 0"/>
<feBlend mode="normal" in2="BackgroundImageFix" result="effect1_dropShadow_408_541"/>
<feBlend mode="normal" in="SourceGraphic" in2="effect1_dropShadow_408_541" result="shape"/>
</filter>
</defs>
</svg>
