<svg width="457" height="357" viewBox="0 0 457 357" fill="none" xmlns="http://www.w3.org/2000/svg">
<path d="M254.1 9.536L16.4959 3.31412C9.87074 3.14064 4.7662 8.36598 5.09456 14.9853L20.7306 330.178C21.059 336.797 26.6959 342.304 33.3211 342.477L270.925 348.699C277.55 348.872 282.654 343.647 282.326 337.028L266.69 21.8354C266.362 15.2161 260.725 9.70948 254.1 9.536Z" fill="#F3F8FB"/>
<path d="M89.5507 72.9962L45.0301 71.8304C38.4049 71.6569 33.3004 76.8822 33.6287 83.5015L35.9163 129.614C36.2447 136.234 41.8816 141.74 48.5068 141.914L93.0274 143.079C99.6525 143.253 104.757 138.028 104.429 131.408L102.141 85.2956C101.813 78.6763 96.1758 73.1697 89.5507 72.9962Z" fill="white"/>
<path d="M89.496 120.783C89.2753 118.861 87.5179 117.97 86.9008 117.714C86.7594 117.656 86.6157 117.608 86.472 117.556L78.8347 114.808C76.7365 113.989 74.4739 114.278 72.4615 115.013C71.9938 115.184 71.5501 115.322 71.1485 115.434C70.0426 115.74 68.8472 115.711 67.7076 115.347C67.2895 115.213 66.8261 115.05 66.3351 114.852C64.2441 114.01 61.947 113.601 59.9248 114.313L52.5441 116.661C52.3927 116.709 52.2396 116.754 52.0915 116.81C51.4845 117.042 49.8587 117.839 49.8293 119.745C48.9015 126.622 54.5292 133.132 61.5621 133.316L70.0087 133.537L70.6192 133.553L79.0685 133.775C86.1029 133.959 91.1022 127.73 89.496 120.783Z" fill="#B3D8F3"/>
<path d="M80.2349 96.3267C80.4779 104.298 75.4057 110.516 68.9132 110.224C62.4054 109.931 56.9368 103.24 56.6938 95.2686C56.4508 87.2975 61.5229 81.0799 68.0154 81.3717C74.5079 81.6636 79.9919 88.3556 80.2349 96.3267Z" fill="#B3D8F3"/>
<path d="M244.788 87.0362C244.861 88.5001 243.73 89.6583 242.264 89.6199L117.877 86.3627C116.412 86.3244 115.162 85.1038 115.09 83.6399C115.017 82.176 116.148 81.0178 117.614 81.0562L241.986 84.313C243.466 84.3517 244.716 85.5723 244.788 87.0362Z" fill="#A1D5F3"/>
<path d="M245.617 103.734C245.689 105.198 244.558 106.356 243.093 106.317L118.705 103.06C117.24 103.022 115.99 101.801 115.918 100.337C115.845 98.8735 116.977 97.7153 118.442 97.7536L242.814 101.01C244.295 101.049 245.544 102.27 245.617 103.734Z" fill="#A1D5F3"/>
<path d="M246.446 120.446C246.518 121.91 245.387 123.068 243.922 123.03L119.534 119.773C118.069 119.734 116.819 118.514 116.747 117.05C116.674 115.586 117.806 114.428 119.271 114.466L243.643 117.723C245.124 117.762 246.373 118.982 246.446 120.446Z" fill="#A1D5F3"/>
<path d="M247.275 137.159C247.347 138.623 246.216 139.781 244.751 139.743L120.363 136.486C118.898 136.447 117.649 135.227 117.576 133.763C117.503 132.299 118.635 131.141 120.1 131.179L244.472 134.436C245.953 134.475 247.202 135.695 247.275 137.159Z" fill="#A1D5F3"/>
<path d="M248.9 169.882C248.972 171.346 247.841 172.505 246.376 172.466L39.0986 167.038C37.6334 167 36.3839 165.78 36.3113 164.316C36.2387 162.852 37.3701 161.694 38.8353 161.732L246.097 167.159C247.578 167.198 248.827 168.419 248.9 169.882Z" fill="#A1D5F3"/>
<path d="M249.729 186.58C249.801 188.044 248.67 189.202 247.205 189.164L39.9277 183.736C38.4625 183.697 37.213 182.477 37.1404 181.013C37.0678 179.549 38.1992 178.391 39.6644 178.429L246.926 183.857C248.407 183.895 249.656 185.116 249.729 186.58Z" fill="#A1D5F3"/>
<path d="M250.558 203.292C250.63 204.756 249.499 205.914 248.034 205.876L40.7568 200.448C39.2916 200.41 38.0421 199.189 37.9695 197.725C37.8969 196.262 39.0283 195.103 40.4935 195.142L247.755 200.569C249.236 200.608 250.485 201.828 250.558 203.292Z" fill="#A1D5F3"/>
<path d="M251.386 219.99C251.459 221.454 250.327 222.612 248.862 222.574L41.5849 217.146C40.1197 217.108 38.8703 215.887 38.7976 214.423C38.725 212.959 39.8565 211.801 41.3217 211.839L248.583 217.267C250.064 217.305 251.313 218.526 251.386 219.99Z" fill="#A1D5F3"/>
<path d="M252.531 243.092C252.604 244.556 251.473 245.714 250.007 245.676L42.7304 240.248C41.2652 240.209 40.0158 238.989 39.9431 237.525C39.8705 236.061 41.002 234.903 42.4672 234.941L249.729 240.369C251.209 240.407 252.459 241.628 252.531 243.092Z" fill="#A1D5F3"/>
<path d="M253.361 259.804C253.433 261.268 252.302 262.427 250.837 262.388L43.5595 256.96C42.0943 256.922 40.8449 255.702 40.7722 254.238C40.6996 252.774 41.8311 251.616 43.2963 251.654L250.558 257.081C252.038 257.12 253.288 258.341 253.361 259.804Z" fill="#A1D5F3"/>
<path d="M254.19 276.502C254.262 277.966 253.131 279.124 251.666 279.085L44.3886 273.658C42.9234 273.619 41.674 272.399 41.6014 270.935C41.5287 269.471 42.6602 268.313 44.1254 268.351L251.387 273.778C252.868 273.817 254.117 275.038 254.19 276.502Z" fill="#A1D5F3"/>
<path d="M255.019 293.215C255.091 294.679 253.96 295.837 252.495 295.799L45.2177 290.371C43.7525 290.332 42.5031 289.112 42.4305 287.648C42.3578 286.184 43.4893 285.026 44.9545 285.064L252.216 290.492C253.697 290.53 254.946 291.751 255.019 293.215Z" fill="#A1D5F3"/>
<path d="M202.127 48.0443C202.199 49.5082 201.068 50.6665 199.603 50.6281L75.2304 47.3713C73.7652 47.3329 72.5158 46.1123 72.4431 44.6485C72.3705 43.1846 73.502 42.0264 74.9672 42.0647L199.339 45.3215C200.805 45.3599 202.054 46.5805 202.127 48.0443Z" fill="#A1D5F3"/>
<g filter="url(#filter0_d_408_542)">
<rect x="142.686" y="14" width="234" height="329" rx="12" fill="white"/>
</g>
<path d="M376.686 25V34L215.686 19.5L182.186 14H364.686C374.686 14 376.186 21.5 376.686 25Z" fill="#3567D6"/>
<path d="M312.686 343C333.352 340 375.486 334 376.686 334C374.686 341.5 367.686 343 364.186 343H312.686Z" fill="#3CD0FF"/>
<path d="M142.686 331.5V327L315.686 343C263.352 343 157.881 343.168 154.686 343C145.186 342.5 143.686 336.5 142.686 331.5Z" fill="#3567D6"/>
<path d="M250.685 14L142.685 30C141.186 18 149.186 14 152.757 14H250.685Z" fill="#3CD0FF"/>
<rect x="316.686" y="59" width="48" height="2" rx="1" fill="#DEDEDE"/>
<rect x="316.686" y="45" width="50" height="2" rx="1" fill="#DEDEDE"/>
<rect x="316.686" y="52" width="40" height="2" rx="1" fill="#DEDEDE"/>
<circle cx="311.686" cy="60" r="3" fill="#D8D8D8"/>
<circle cx="311.686" cy="46" r="3" fill="#D8D8D8"/>
<circle cx="311.686" cy="53" r="3" fill="#D8D8D8"/>
<line x1="150.686" y1="98.5" x2="366.686" y2="98.5" stroke="#7F7F7F"/>
<line x1="150.686" y1="120.5" x2="366.686" y2="120.5" stroke="#7F7F7F"/>
<rect x="150.686" y="86" width="71" height="3" fill="#C4C4C4"/>
<path d="M156.078 47.3937V52.7874C153.1 52.7874 150.686 50.3719 150.686 47.3937H156.078Z" fill="#3CD0FF"/>
<path d="M156.079 47.3937H150.687V42C153.664 42 156.079 44.4155 156.079 47.3937Z" fill="#3567D6"/>
<path d="M161.469 47.3937C161.469 50.3719 159.054 52.7874 156.077 52.7874C156.077 49.8093 158.492 47.3937 161.469 47.3937Z" fill="#3567D6"/>
<path d="M161.469 47.3937C158.492 47.3937 156.077 44.9782 156.077 42C159.054 42 161.469 44.4155 161.469 47.3937Z" fill="#3CD0FF"/>
<path d="M166.024 57.5421C165.8 57.5421 165.595 57.5138 165.409 57.4571C165.223 57.3978 165.065 57.3155 164.936 57.2103L165.069 56.8784C165.204 56.981 165.348 57.0579 165.502 57.1091C165.656 57.1604 165.83 57.186 166.024 57.186C166.253 57.186 166.422 57.1455 166.53 57.0646C166.641 56.981 166.696 56.8731 166.696 56.7409C166.696 56.6329 166.657 56.548 166.579 56.4859C166.5 56.4212 166.369 56.3699 166.186 56.3321L165.753 56.2431C165.497 56.1892 165.305 56.1001 165.178 55.976C165.054 55.8519 164.992 55.6847 164.992 55.4742C164.992 55.3043 165.037 55.1545 165.126 55.0251C165.217 54.8956 165.344 54.7957 165.506 54.7256C165.668 54.6528 165.854 54.6163 166.065 54.6163C166.259 54.6163 166.438 54.646 166.603 54.7054C166.77 54.762 166.912 54.8456 167.028 54.9563L166.89 55.2759C166.661 55.0736 166.384 54.9724 166.061 54.9724C165.861 54.9724 165.702 55.017 165.583 55.106C165.467 55.195 165.409 55.3137 165.409 55.4621C165.409 55.5754 165.445 55.6658 165.518 55.7332C165.591 55.8007 165.713 55.8519 165.882 55.887L166.311 55.976C166.581 56.0327 166.782 56.1204 166.914 56.2391C167.047 56.3551 167.113 56.5129 167.113 56.7125C167.113 56.8798 167.068 57.0255 166.979 57.1496C166.89 57.2737 166.765 57.3708 166.603 57.4409C166.441 57.5084 166.248 57.5421 166.024 57.5421Z" fill="#1C2C50"/>
<path d="M167.554 57.5057V55.5309H167.951V55.8506C168.01 55.7373 168.092 55.6496 168.197 55.5875C168.303 55.5255 168.425 55.4945 168.566 55.4945C168.868 55.4945 169.063 55.6267 169.153 55.891C169.215 55.7669 169.304 55.6698 169.42 55.5997C169.536 55.5295 169.668 55.4945 169.816 55.4945C170.259 55.4945 170.48 55.7589 170.48 56.2876V57.5057H170.071V56.3079C170.071 56.1406 170.041 56.0178 169.982 55.9396C169.925 55.8614 169.831 55.8223 169.699 55.8223C169.55 55.8223 169.433 55.8749 169.347 55.9801C169.26 56.0826 169.217 56.2229 169.217 56.4009V57.5057H168.809V56.3079C168.809 56.1406 168.78 56.0178 168.724 55.9396C168.667 55.8614 168.572 55.8223 168.44 55.8223C168.292 55.8223 168.175 55.8749 168.088 55.9801C168.005 56.0826 167.963 56.2229 167.963 56.4009V57.5057H167.554Z" fill="#1C2C50"/>
<path d="M171.683 57.5421C171.545 57.5421 171.422 57.5151 171.314 57.4612C171.206 57.4072 171.12 57.3344 171.055 57.2427C170.993 57.1509 170.962 57.0471 170.962 56.9311C170.962 56.7854 170.999 56.6707 171.072 56.5871C171.147 56.5035 171.27 56.4428 171.44 56.405C171.612 56.3672 171.844 56.3483 172.136 56.3483H172.273V56.2431C172.273 56.0893 172.241 55.9787 172.176 55.9113C172.112 55.8438 172.005 55.8101 171.857 55.8101C171.743 55.8101 171.63 55.8276 171.517 55.8627C171.403 55.8951 171.287 55.9477 171.169 56.0205L171.043 55.7332C171.146 55.6604 171.274 55.6024 171.428 55.5592C171.581 55.5161 171.728 55.4945 171.869 55.4945C172.138 55.4945 172.338 55.5592 172.468 55.6887C172.597 55.8155 172.662 56.0151 172.662 56.2876V57.5057H172.277V57.1779C172.229 57.2912 172.153 57.3802 172.051 57.445C171.948 57.5097 171.826 57.5421 171.683 57.5421ZM171.763 57.2507C171.909 57.2507 172.031 57.1995 172.128 57.097C172.225 56.9945 172.273 56.865 172.273 56.7085V56.5992H172.14C171.943 56.5992 171.788 56.6087 171.674 56.6276C171.564 56.6464 171.484 56.6788 171.436 56.7247C171.39 56.7678 171.367 56.8285 171.367 56.9068C171.367 57.0093 171.402 57.0929 171.472 57.1577C171.542 57.2197 171.639 57.2507 171.763 57.2507Z" fill="#1C2C50"/>
<path d="M173.225 57.5057V55.5309H173.621V55.883C173.724 55.6482 173.937 55.5174 174.261 55.4904L174.394 55.4823L174.423 55.8303L174.176 55.8546C173.817 55.8897 173.638 56.0745 173.638 56.409V57.5057H173.225Z" fill="#1C2C50"/>
<path d="M175.687 57.5421C175.439 57.5421 175.254 57.4787 175.132 57.3519C175.011 57.2251 174.95 57.0417 174.95 56.8016V55.8465H174.566V55.5309H174.95V54.936H175.359V55.5309H175.97V55.8465H175.359V56.7692C175.359 56.9122 175.389 57.0201 175.448 57.0929C175.51 57.1658 175.61 57.2022 175.747 57.2022C175.791 57.2022 175.832 57.1981 175.873 57.19C175.913 57.1793 175.954 57.1671 175.994 57.1536L176.059 57.4612C176.019 57.4855 175.962 57.5043 175.889 57.5178C175.819 57.534 175.752 57.5421 175.687 57.5421Z" fill="#1C2C50"/>
<path d="M177.431 57.5057V54.6528H178.612C178.92 54.6528 179.157 54.7269 179.325 54.8753C179.492 55.021 179.575 55.226 179.575 55.4904C179.575 55.7036 179.519 55.8789 179.405 56.0165C179.292 56.1514 179.132 56.2418 178.924 56.2876C179.053 56.3308 179.163 56.4347 179.252 56.5992L179.745 57.5057H179.284L178.79 56.5952C178.734 56.49 178.668 56.4198 178.592 56.3847C178.519 56.347 178.425 56.3281 178.309 56.3281H177.851V57.5057H177.431ZM177.851 56.0125H178.543C178.959 56.0125 179.167 55.8411 179.167 55.4985C179.167 55.1586 178.959 54.9886 178.543 54.9886H177.851V56.0125Z" fill="#1C2C50"/>
<path d="M181.004 57.5421C180.68 57.5421 180.425 57.4517 180.239 57.271C180.053 57.0875 179.96 56.838 179.96 56.5223C179.96 56.32 180 56.1419 180.081 55.9882C180.165 55.8317 180.28 55.7103 180.425 55.624C180.571 55.5376 180.738 55.4945 180.927 55.4945C181.2 55.4945 181.414 55.5821 181.571 55.7575C181.727 55.9302 181.805 56.1689 181.805 56.4738V56.6114H180.357C180.386 57.0214 180.603 57.2265 181.008 57.2265C181.121 57.2265 181.232 57.2089 181.34 57.1739C181.451 57.1388 181.554 57.0808 181.652 56.9998L181.773 57.2831C181.684 57.3641 181.569 57.4275 181.429 57.4733C181.289 57.5192 181.147 57.5421 181.004 57.5421ZM180.943 55.7818C180.773 55.7818 180.638 55.8344 180.539 55.9396C180.439 56.0448 180.378 56.1851 180.357 56.3605H181.461C181.453 56.177 181.405 56.0354 181.316 55.9356C181.227 55.833 181.103 55.7818 180.943 55.7818Z" fill="#1C2C50"/>
<path d="M182.251 58.2341V55.5309H182.652V55.8668C182.708 55.7535 182.794 55.6631 182.91 55.5956C183.026 55.5282 183.16 55.4945 183.311 55.4945C183.486 55.4945 183.639 55.5363 183.768 55.6199C183.901 55.7036 184.002 55.8223 184.072 55.976C184.145 56.1271 184.181 56.3079 184.181 56.5183C184.181 56.7287 184.145 56.9108 184.072 57.0646C184.002 57.2184 183.901 57.3371 183.768 57.4207C183.639 57.5016 183.486 57.5421 183.311 57.5421C183.165 57.5421 183.035 57.5111 182.919 57.449C182.805 57.3843 182.719 57.2966 182.66 57.186V58.2341H182.251ZM183.21 57.2265C183.38 57.2265 183.515 57.1658 183.615 57.0444C183.717 56.923 183.768 56.7476 183.768 56.5183C183.768 56.289 183.717 56.115 183.615 55.9963C183.515 55.8749 183.38 55.8142 183.21 55.8142C183.04 55.8142 182.904 55.8749 182.801 55.9963C182.701 56.115 182.652 56.289 182.652 56.5183C182.652 56.7476 182.701 56.923 182.801 57.0444C182.904 57.1658 183.04 57.2265 183.21 57.2265Z" fill="#1C2C50"/>
<path d="M185.5 57.5421C185.3 57.5421 185.127 57.5003 184.982 57.4167C184.836 57.333 184.723 57.2157 184.642 57.0646C184.564 56.9108 184.524 56.7287 184.524 56.5183C184.524 56.3079 184.564 56.1271 184.642 55.976C184.723 55.8223 184.836 55.7036 184.982 55.6199C185.127 55.5363 185.3 55.4945 185.5 55.4945C185.694 55.4945 185.864 55.5363 186.01 55.6199C186.155 55.7036 186.269 55.8223 186.349 55.976C186.43 56.1271 186.471 56.3079 186.471 56.5183C186.471 56.7287 186.43 56.9108 186.349 57.0646C186.269 57.2157 186.155 57.333 186.01 57.4167C185.864 57.5003 185.694 57.5421 185.5 57.5421ZM185.5 57.2265C185.667 57.2265 185.802 57.1658 185.904 57.0444C186.007 56.923 186.058 56.7476 186.058 56.5183C186.058 56.289 186.007 56.115 185.904 55.9963C185.802 55.8749 185.667 55.8142 185.5 55.8142C185.33 55.8142 185.193 55.8749 185.091 55.9963C184.988 56.115 184.937 56.289 184.937 56.5183C184.937 56.7476 184.988 56.923 185.091 57.0444C185.193 57.1658 185.33 57.2265 185.5 57.2265Z" fill="#1C2C50"/>
<path d="M186.93 57.5057V55.5309H187.326V55.883C187.429 55.6482 187.642 55.5174 187.966 55.4904L188.099 55.4823L188.128 55.8303L187.881 55.8546C187.522 55.8897 187.343 56.0745 187.343 56.409V57.5057H186.93Z" fill="#1C2C50"/>
<path d="M189.392 57.5421C189.144 57.5421 188.959 57.4787 188.837 57.3519C188.716 57.2251 188.655 57.0417 188.655 56.8016V55.8465H188.271V55.5309H188.655V54.936H189.064V55.5309H189.675V55.8465H189.064V56.7692C189.064 56.9122 189.094 57.0201 189.153 57.0929C189.215 57.1658 189.315 57.2022 189.453 57.2022C189.496 57.2022 189.538 57.1981 189.578 57.19C189.618 57.1793 189.659 57.1671 189.699 57.1536L189.764 57.4612C189.724 57.4855 189.667 57.5043 189.594 57.5178C189.524 57.534 189.457 57.5421 189.392 57.5421Z" fill="#1C2C50"/>
<path d="M190.249 58.0034L190.071 57.8658C190.133 57.7984 190.179 57.7364 190.209 57.6797C190.238 57.623 190.257 57.565 190.265 57.5057H190.043V57.0241H190.524V57.3519C190.524 57.476 190.504 57.5893 190.464 57.6918C190.423 57.7971 190.352 57.9009 190.249 58.0034Z" fill="#1C2C50"/>
<path d="M193.11 57.5421C192.886 57.5421 192.681 57.5138 192.495 57.4571C192.309 57.3978 192.151 57.3155 192.022 57.2103L192.155 56.8784C192.29 56.981 192.434 57.0579 192.588 57.1091C192.742 57.1604 192.916 57.186 193.11 57.186C193.34 57.186 193.508 57.1455 193.616 57.0646C193.727 56.981 193.782 56.8731 193.782 56.7409C193.782 56.6329 193.743 56.548 193.665 56.4859C193.586 56.4212 193.456 56.3699 193.272 56.3321L192.839 56.2431C192.583 56.1892 192.391 56.1001 192.264 55.976C192.14 55.8519 192.078 55.6847 192.078 55.4742C192.078 55.3043 192.123 55.1545 192.212 55.0251C192.304 54.8956 192.43 54.7957 192.592 54.7256C192.754 54.6528 192.94 54.6163 193.151 54.6163C193.345 54.6163 193.524 54.646 193.689 54.7054C193.856 54.762 193.998 54.8456 194.114 54.9563L193.976 55.2759C193.747 55.0736 193.47 54.9724 193.147 54.9724C192.947 54.9724 192.788 55.017 192.669 55.106C192.553 55.195 192.495 55.3137 192.495 55.4621C192.495 55.5754 192.532 55.6658 192.604 55.7332C192.677 55.8007 192.799 55.8519 192.969 55.887L193.398 55.976C193.667 56.0327 193.868 56.1204 194.001 56.2391C194.133 56.3551 194.199 56.5129 194.199 56.7125C194.199 56.8798 194.154 57.0255 194.065 57.1496C193.976 57.2737 193.851 57.3708 193.689 57.4409C193.527 57.5084 193.334 57.5421 193.11 57.5421Z" fill="#1C2C50"/>
<path d="M194.64 57.5057V55.5309H195.037V55.8506C195.096 55.7373 195.178 55.6496 195.284 55.5875C195.389 55.5255 195.512 55.4945 195.652 55.4945C195.954 55.4945 196.15 55.6267 196.239 55.891C196.301 55.7669 196.39 55.6698 196.506 55.5997C196.622 55.5295 196.754 55.4945 196.902 55.4945C197.345 55.4945 197.566 55.7589 197.566 56.2876V57.5057H197.157V56.3079C197.157 56.1406 197.128 56.0178 197.068 55.9396C197.012 55.8614 196.917 55.8223 196.785 55.8223C196.637 55.8223 196.519 55.8749 196.433 55.9801C196.347 56.0826 196.303 56.2229 196.303 56.4009V57.5057H195.895V56.3079C195.895 56.1406 195.866 56.0178 195.81 55.9396C195.753 55.8614 195.659 55.8223 195.526 55.8223C195.378 55.8223 195.261 55.8749 195.174 55.9801C195.091 56.0826 195.049 56.2229 195.049 56.4009V57.5057H194.64Z" fill="#1C2C50"/>
<path d="M198.769 57.5421C198.631 57.5421 198.508 57.5151 198.4 57.4612C198.293 57.4072 198.206 57.3344 198.141 57.2427C198.079 57.1509 198.048 57.0471 198.048 56.9311C198.048 56.7854 198.085 56.6707 198.158 56.5871C198.233 56.5035 198.356 56.4428 198.526 56.405C198.699 56.3672 198.931 56.3483 199.222 56.3483H199.36V56.2431C199.36 56.0893 199.327 55.9787 199.262 55.9113C199.198 55.8438 199.091 55.8101 198.943 55.8101C198.829 55.8101 198.716 55.8276 198.603 55.8627C198.489 55.8951 198.373 55.9477 198.255 56.0205L198.129 55.7332C198.232 55.6604 198.36 55.6024 198.514 55.5592C198.668 55.5161 198.815 55.4945 198.955 55.4945C199.225 55.4945 199.424 55.5592 199.554 55.6887C199.683 55.8155 199.748 56.0151 199.748 56.2876V57.5057H199.364V57.1779C199.315 57.2912 199.239 57.3802 199.137 57.445C199.034 57.5097 198.912 57.5421 198.769 57.5421ZM198.85 57.2507C198.995 57.2507 199.117 57.1995 199.214 57.097C199.311 56.9945 199.36 56.865 199.36 56.7085V56.5992H199.226C199.029 56.5992 198.874 56.6087 198.761 56.6276C198.65 56.6464 198.57 56.6788 198.522 56.7247C198.476 56.7678 198.453 56.8285 198.453 56.9068C198.453 57.0093 198.488 57.0929 198.558 57.1577C198.628 57.2197 198.726 57.2507 198.85 57.2507Z" fill="#1C2C50"/>
<path d="M200.311 57.5057V55.5309H200.708V55.883C200.81 55.6482 201.023 55.5174 201.347 55.4904L201.48 55.4823L201.509 55.8303L201.262 55.8546C200.903 55.8897 200.724 56.0745 200.724 56.409V57.5057H200.311Z" fill="#1C2C50"/>
<path d="M202.773 57.5421C202.525 57.5421 202.34 57.4787 202.219 57.3519C202.097 57.2251 202.036 57.0417 202.036 56.8016V55.8465H201.652V55.5309H202.036V54.936H202.445V55.5309H203.056V55.8465H202.445V56.7692C202.445 56.9122 202.475 57.0201 202.534 57.0929C202.596 57.1658 202.696 57.2022 202.834 57.2022C202.877 57.2022 202.919 57.1981 202.959 57.19C203 57.1793 203.04 57.1671 203.08 57.1536L203.145 57.4612C203.105 57.4855 203.048 57.5043 202.975 57.5178C202.905 57.534 202.838 57.5421 202.773 57.5421Z" fill="#1C2C50"/>
<path d="M204.316 57.5421C203.992 57.5421 203.737 57.4517 203.551 57.271C203.365 57.0875 203.272 56.838 203.272 56.5223C203.272 56.32 203.313 56.1419 203.393 55.9882C203.477 55.8317 203.592 55.7103 203.737 55.624C203.883 55.5376 204.05 55.4945 204.239 55.4945C204.512 55.4945 204.726 55.5821 204.883 55.7575C205.039 55.9302 205.117 56.1689 205.117 56.4738V56.6114H203.669C203.698 57.0214 203.916 57.2265 204.32 57.2265C204.433 57.2265 204.544 57.2089 204.652 57.1739C204.763 57.1388 204.866 57.0808 204.964 56.9998L205.085 57.2831C204.996 57.3641 204.881 57.4275 204.741 57.4733C204.601 57.5192 204.459 57.5421 204.316 57.5421ZM204.255 55.7818C204.085 55.7818 203.951 55.8344 203.851 55.9396C203.751 56.0448 203.69 56.1851 203.669 56.3605H204.773C204.765 56.177 204.717 56.0354 204.628 55.9356C204.539 55.833 204.415 55.7818 204.255 55.7818Z" fill="#1C2C50"/>
<path d="M205.563 57.5057V55.5309H205.96V55.883C206.062 55.6482 206.275 55.5174 206.599 55.4904L206.732 55.4823L206.761 55.8303L206.514 55.8546C206.155 55.8897 205.976 56.0745 205.976 56.409V57.5057H205.563Z" fill="#1C2C50"/>
<path d="M208.864 57.5057V56.1743L207.771 54.6528H208.257L209.083 55.8061L209.908 54.6528H210.373L209.281 56.1784V57.5057H208.864Z" fill="#1C2C50"/>
<path d="M211.12 57.5421C210.92 57.5421 210.747 57.5003 210.602 57.4167C210.456 57.333 210.343 57.2157 210.262 57.0646C210.184 56.9108 210.144 56.7287 210.144 56.5183C210.144 56.3079 210.184 56.1271 210.262 55.976C210.343 55.8223 210.456 55.7036 210.602 55.6199C210.747 55.5363 210.92 55.4945 211.12 55.4945C211.314 55.4945 211.484 55.5363 211.63 55.6199C211.775 55.7036 211.889 55.8223 211.969 55.976C212.05 56.1271 212.091 56.3079 212.091 56.5183C212.091 56.7287 212.05 56.9108 211.969 57.0646C211.889 57.2157 211.775 57.333 211.63 57.4167C211.484 57.5003 211.314 57.5421 211.12 57.5421ZM211.12 57.2265C211.287 57.2265 211.422 57.1658 211.524 57.0444C211.627 56.923 211.678 56.7476 211.678 56.5183C211.678 56.289 211.627 56.115 211.524 55.9963C211.422 55.8749 211.287 55.8142 211.12 55.8142C210.95 55.8142 210.813 55.8749 210.711 55.9963C210.608 56.115 210.557 56.289 210.557 56.5183C210.557 56.7476 210.608 56.923 210.711 57.0444C210.813 57.1658 210.95 57.2265 211.12 57.2265Z" fill="#1C2C50"/>
<path d="M213.254 57.5421C212.776 57.5421 212.538 57.2764 212.538 56.7449V55.5309H212.946V56.749C212.946 56.9081 212.979 57.0255 213.044 57.101C213.108 57.1766 213.211 57.2143 213.351 57.2143C213.505 57.2143 213.629 57.1631 213.723 57.0605C213.821 56.958 213.869 56.8204 213.869 56.6478V55.5309H214.278V57.5057H213.881V57.19C213.816 57.3061 213.73 57.3937 213.622 57.4531C213.514 57.5124 213.392 57.5421 213.254 57.5421Z" fill="#1C2C50"/>
<path d="M166.023 47.1181C166.039 46.098 166.595 45.6498 167.275 45.6498C168.033 45.6498 168.512 46.098 168.512 47.1644V50.0238H169.78V47.1644C169.78 45.6188 169.146 44.6142 167.585 44.6142C166.873 44.6142 166.286 45.0006 166.023 45.4952V44.7842H164.74V50.0238H166.023V47.1181ZM171.033 48.0145C171.033 49.1273 171.234 50.0083 172.239 50.0856C172.347 50.101 172.455 50.101 172.579 50.101C172.749 50.0856 172.904 50.0392 173.12 49.9465L173.027 49.081C172.981 49.081 172.95 49.0964 172.919 49.0964C172.363 49.0964 172.301 48.7564 172.301 48.0145V44.7842H171.033V48.0145ZM171.683 42.4349C171.234 42.4349 170.894 42.7904 170.894 43.2386C170.894 43.6714 171.234 44.0269 171.683 44.0269C172.131 44.0269 172.486 43.6714 172.486 43.2386C172.486 42.7904 172.131 42.4349 171.683 42.4349ZM175.186 47.1181C175.186 46.0671 175.727 45.6652 176.408 45.6652C176.593 45.6652 176.779 45.7116 176.949 45.7734L177.474 44.7379C177.258 44.6606 177.01 44.6142 176.748 44.6142C176.037 44.6142 175.449 45.0006 175.186 45.4952V44.7842H173.919V50.0238H175.186V47.1181ZM180.317 50.1938C182.188 50.1938 183.146 48.88 183.146 47.3963C183.146 45.9125 182.188 44.6142 180.317 44.6142C178.462 44.6142 177.504 45.928 177.504 47.3963C177.504 48.8646 178.462 50.1938 180.317 50.1938ZM180.317 49.2819C179.436 49.2819 178.772 48.54 178.772 47.3963C178.772 46.2834 179.452 45.5416 180.317 45.5416C181.198 45.5416 181.879 46.2834 181.879 47.3963C181.879 48.54 181.198 49.2819 180.317 49.2819ZM183.935 47.4426C183.935 48.9109 184.924 50.2401 186.501 50.2401C187.29 50.2401 187.923 49.8228 188.31 49.1891V50.1474C188.31 51.3066 187.475 51.9094 186.408 51.9094C185.62 51.9094 184.986 51.5693 184.523 50.9047L183.827 51.4766C184.383 52.4812 185.481 52.8522 186.563 52.8522C188.372 52.8522 189.577 51.7857 189.577 50.101V44.7842H188.31V45.6807C187.923 45.0315 187.305 44.6142 186.486 44.6142C184.924 44.6142 183.935 45.9743 183.935 47.4426ZM185.203 47.4272C185.203 46.4998 185.852 45.7116 186.749 45.7116C187.661 45.7116 188.31 46.5153 188.31 47.4272C188.31 48.3545 187.676 49.1273 186.749 49.1273C185.852 49.1273 185.203 48.3854 185.203 47.4272ZM190.668 47.4426C190.668 48.9109 191.657 50.2401 193.234 50.2401C194.022 50.2401 194.656 49.8228 195.042 49.1891V50.1474C195.042 51.3066 194.208 51.9094 193.141 51.9094C192.353 51.9094 191.719 51.5693 191.255 50.9047L190.56 51.4766C191.116 52.4812 192.214 52.8522 193.296 52.8522C195.104 52.8522 196.31 51.7857 196.31 50.101V44.7842H195.042V45.6807C194.656 45.0315 194.038 44.6142 193.218 44.6142C191.657 44.6142 190.668 45.9743 190.668 47.4426ZM191.935 47.4272C191.935 46.4998 192.585 45.7116 193.481 45.7116C194.393 45.7116 195.042 46.5153 195.042 47.4272C195.042 48.3545 194.409 49.1273 193.481 49.1273C192.585 49.1273 191.935 48.3854 191.935 47.4272ZM202.996 44.7842H201.605L200.044 48.1691L198.529 44.7842H197.138L199.364 49.4828L197.71 52.8058H199.039L202.996 44.7842ZM203.121 47.4426C203.121 48.9109 204.111 50.2401 205.703 50.2401C206.491 50.2401 207.125 49.8228 207.496 49.1891V50.0238H208.748V44.7842H207.496V45.6807C207.11 45.0315 206.491 44.6142 205.687 44.6142C204.126 44.6142 203.121 45.9743 203.121 47.4426ZM204.405 47.4272C204.405 46.4998 205.038 45.7116 205.95 45.7116C206.862 45.7116 207.481 46.5153 207.481 47.4272C207.481 48.3391 206.862 49.1273 205.95 49.1273C205.038 49.1273 204.405 48.3854 204.405 47.4272ZM211.447 47.1181C211.462 46.098 212.018 45.6498 212.698 45.6498C213.456 45.6498 213.935 46.098 213.935 47.1644V50.0238H215.203V47.1644C215.203 45.6188 214.569 44.6142 213.007 44.6142C212.297 44.6142 211.709 45.0006 211.447 45.4952V44.7842H210.163V50.0238H211.447V47.1181Z" fill="#3567D6"/>
<path d="M150.686 147H368.686" stroke="#DEDEDE"/>
<rect x="150.686" y="133" width="216" height="3" fill="#C4C4C4"/>
<rect x="150.686" y="127" width="216" height="3" fill="#C4C4C4"/>
<rect x="150.686" y="139" width="109" height="3" fill="#C4C4C4"/>
<rect x="150.686" y="251" width="216" height="3" fill="#C4C4C4"/>
<rect x="188.686" y="291" width="69" height="3" fill="#C4C4C4"/>
<rect x="308.686" y="290" width="58" height="3" fill="#C4C4C4"/>
<rect x="150.686" y="257" width="216" height="3" fill="#C4C4C4"/>
<rect x="188.686" y="297" width="69" height="3" fill="#C4C4C4"/>
<rect x="308.686" y="296" width="58" height="3" fill="#C4C4C4"/>
<rect x="150.686" y="263" width="216" height="3" fill="#C4C4C4"/>
<rect x="188.686" y="303" width="69" height="3" fill="#C4C4C4"/>
<rect x="308.686" y="302" width="58" height="3" fill="#C4C4C4"/>
<rect x="150.686" y="269" width="145" height="3" fill="#C4C4C4"/>
<rect x="188.686" y="309" width="49" height="3" fill="#C4C4C4"/>
<rect x="308.686" y="308" width="41" height="3" fill="#C4C4C4"/>
<rect x="150.686" y="289" width="31" height="27" fill="#C4C4C4"/>
<rect x="270.686" y="288" width="31" height="27" fill="#C4C4C4"/>
<path d="M345.152 79.022V69.9999H342.058V79.022H345.152ZM341.13 79.022V69.9999H339.583V79.022H341.13ZM338.964 79.022V69.9999H338.345V79.022H338.964ZM337.726 79.022V69.9999H335.87V79.022H337.726ZM335.251 79.022V69.9999H334.632V79.022H335.251ZM333.394 79.022V69.9999H332.775V79.022H333.394ZM331.847 79.022V69.9999H331.228V79.022H331.847ZM330.609 79.022V69.9999H329.991V79.022H330.609ZM328.753 79.022V69.9999H326.278V79.022H328.753ZM325.349 79.022V69.9999H323.493V79.022H325.349ZM322.255 79.022V69.9999H321.636V79.022H322.255ZM321.017 79.022V69.9999H319.78V79.022H321.017ZM319.161 79.022V69.9999H316.686V79.022H319.161Z" fill="black"/>
<path d="M364.337 79.0222V70.0001H362.48V79.0222H364.337ZM361.862 79.0222V70.0001H361.243V79.0222H361.862ZM360.005 79.0222V70.0001H359.386V79.0222H360.005ZM358.458 79.0222V70.0001H357.839V79.0222H358.458ZM357.22 79.0222V70.0001H356.602V79.0222H357.22ZM355.364 79.0222V70.0001H352.888V79.0222H355.364ZM351.96 79.0222V70.0001H350.104V79.0222H351.96ZM348.866 79.0222V70.0001H348.247V79.0222H348.866ZM347.628 79.0222V70.0001H346.391V79.0222H347.628Z" fill="black"/>
<path d="M317.094 87.92V87.256C317.227 87.1387 317.422 86.9707 317.678 86.752C317.934 86.5333 318.128 86.3653 318.262 86.248C318.4 86.1253 318.571 85.9707 318.774 85.784C318.976 85.592 319.134 85.4293 319.246 85.296C319.358 85.1573 319.472 85.0027 319.59 84.832C319.808 84.5227 319.918 84.2133 319.918 83.904C319.918 83.2427 319.603 82.912 318.974 82.912C318.659 82.912 318.414 83.0133 318.238 83.216C318.067 83.4133 317.976 83.68 317.966 84.016H317.086C317.102 83.408 317.283 82.944 317.63 82.624C317.982 82.2987 318.438 82.136 318.998 82.136C319.558 82.136 320 82.2933 320.326 82.608C320.656 82.9227 320.822 83.3387 320.822 83.856C320.822 84.2453 320.718 84.616 320.51 84.968C320.398 85.1493 320.291 85.312 320.19 85.456C320.088 85.5947 319.947 85.7547 319.766 85.936C319.584 86.1173 319.44 86.2587 319.334 86.36C319.227 86.4613 319.07 86.6027 318.862 86.784C318.659 86.9653 318.52 87.0907 318.446 87.16H320.982V87.92H317.094ZM323.335 82.392C323.612 82.2427 323.948 82.168 324.343 82.168C324.737 82.168 325.073 82.2427 325.351 82.392C325.628 82.536 325.841 82.744 325.991 83.016C326.145 83.288 326.255 83.592 326.319 83.928C326.388 84.2587 326.423 84.64 326.423 85.072C326.423 85.504 326.388 85.888 326.319 86.224C326.255 86.5547 326.145 86.8587 325.991 87.136C325.841 87.408 325.628 87.6187 325.351 87.768C325.073 87.912 324.737 87.984 324.343 87.984C323.948 87.984 323.612 87.912 323.335 87.768C323.057 87.6187 322.841 87.408 322.687 87.136C322.537 86.8587 322.428 86.5547 322.359 86.224C322.295 85.888 322.263 85.504 322.263 85.072C322.263 84.64 322.295 84.2587 322.359 83.928C322.428 83.592 322.537 83.288 322.687 83.016C322.841 82.744 323.057 82.536 323.335 82.392ZM324.343 83C324.087 83 323.876 83.056 323.711 83.168C323.545 83.2747 323.425 83.4347 323.351 83.648C323.223 84.016 323.159 84.4907 323.159 85.072C323.159 85.6587 323.223 86.136 323.351 86.504C323.5 86.936 323.831 87.152 324.343 87.152C324.855 87.152 325.185 86.936 325.335 86.504C325.463 86.136 325.527 85.6587 325.527 85.072C325.527 84.4907 325.463 84.016 325.335 83.648C325.185 83.216 324.855 83 324.343 83ZM328.492 88V83.152H327.748V82.32H329.412V88H328.492ZM331.769 88V83.152H331.025V82.32H332.689V88H331.769ZM335.493 82.392C335.771 82.2427 336.107 82.168 336.501 82.168C336.896 82.168 337.232 82.2427 337.509 82.392C337.787 82.536 338 82.744 338.149 83.016C338.304 83.288 338.413 83.592 338.477 83.928C338.547 84.2587 338.581 84.64 338.581 85.072C338.581 85.504 338.547 85.888 338.477 86.224C338.413 86.5547 338.304 86.8587 338.149 87.136C338 87.408 337.787 87.6187 337.509 87.768C337.232 87.912 336.896 87.984 336.501 87.984C336.107 87.984 335.771 87.912 335.493 87.768C335.216 87.6187 335 87.408 334.845 87.136C334.696 86.8587 334.587 86.5547 334.517 86.224C334.453 85.888 334.421 85.504 334.421 85.072C334.421 84.64 334.453 84.2587 334.517 83.928C334.587 83.592 334.696 83.288 334.845 83.016C335 82.744 335.216 82.536 335.493 82.392ZM336.501 83C336.245 83 336.035 83.056 335.869 83.168C335.704 83.2747 335.584 83.4347 335.509 83.648C335.381 84.016 335.317 84.4907 335.317 85.072C335.317 85.6587 335.381 86.136 335.509 86.504C335.659 86.936 335.989 87.152 336.501 87.152C337.013 87.152 337.344 86.936 337.493 86.504C337.621 86.136 337.685 85.6587 337.685 85.072C337.685 84.4907 337.621 84.016 337.493 83.648C337.344 83.216 337.013 83 336.501 83ZM339.954 87.92V87.256C340.088 87.1387 340.282 86.9707 340.538 86.752C340.794 86.5333 340.989 86.3653 341.122 86.248C341.261 86.1253 341.432 85.9707 341.634 85.784C341.837 85.592 341.994 85.4293 342.106 85.296C342.218 85.1573 342.333 85.0027 342.45 84.832C342.669 84.5227 342.778 84.2133 342.778 83.904C342.778 83.2427 342.464 82.912 341.834 82.912C341.52 82.912 341.274 83.0133 341.098 83.216C340.928 83.4133 340.837 83.68 340.826 84.016H339.946C339.962 83.408 340.144 82.944 340.49 82.624C340.842 82.2987 341.298 82.136 341.858 82.136C342.418 82.136 342.861 82.2933 343.186 82.608C343.517 82.9227 343.682 83.3387 343.682 83.856C343.682 84.2453 343.578 84.616 343.37 84.968C343.258 85.1493 343.152 85.312 343.05 85.456C342.949 85.5947 342.808 85.7547 342.626 85.936C342.445 86.1173 342.301 86.2587 342.194 86.36C342.088 86.4613 341.93 86.6027 341.722 86.784C341.52 86.9653 341.381 87.0907 341.306 87.16H343.842V87.92H339.954ZM346.196 82.392C346.473 82.2427 346.809 82.168 347.204 82.168C347.598 82.168 347.934 82.2427 348.212 82.392C348.489 82.536 348.702 82.744 348.852 83.016C349.006 83.288 349.116 83.592 349.18 83.928C349.249 84.2587 349.284 84.64 349.284 85.072C349.284 85.504 349.249 85.888 349.18 86.224C349.116 86.5547 349.006 86.8587 348.852 87.136C348.702 87.408 348.489 87.6187 348.212 87.768C347.934 87.912 347.598 87.984 347.204 87.984C346.809 87.984 346.473 87.912 346.196 87.768C345.918 87.6187 345.702 87.408 345.548 87.136C345.398 86.8587 345.289 86.5547 345.22 86.224C345.156 85.888 345.124 85.504 345.124 85.072C345.124 84.64 345.156 84.2587 345.22 83.928C345.289 83.592 345.398 83.288 345.548 83.016C345.702 82.744 345.918 82.536 346.196 82.392ZM347.204 83C346.948 83 346.737 83.056 346.572 83.168C346.406 83.2747 346.286 83.4347 346.212 83.648C346.084 84.016 346.02 84.4907 346.02 85.072C346.02 85.6587 346.084 86.136 346.212 86.504C346.361 86.936 346.692 87.152 347.204 87.152C347.716 87.152 348.046 86.936 348.196 86.504C348.324 86.136 348.388 85.6587 348.388 85.072C348.388 84.4907 348.324 84.016 348.196 83.648C348.046 83.216 347.716 83 347.204 83ZM350.657 87.92V87.256C350.79 87.1387 350.985 86.9707 351.241 86.752C351.497 86.5333 351.691 86.3653 351.825 86.248C351.963 86.1253 352.134 85.9707 352.337 85.784C352.539 85.592 352.697 85.4293 352.809 85.296C352.921 85.1573 353.035 85.0027 353.153 84.832C353.371 84.5227 353.481 84.2133 353.481 83.904C353.481 83.2427 353.166 82.912 352.537 82.912C352.222 82.912 351.977 83.0133 351.801 83.216C351.63 83.4133 351.539 83.68 351.529 84.016H350.649C350.665 83.408 350.846 82.944 351.193 82.624C351.545 82.2987 352.001 82.136 352.561 82.136C353.121 82.136 353.563 82.2933 353.889 82.608C354.219 82.9227 354.385 83.3387 354.385 83.856C354.385 84.2453 354.281 84.616 354.073 84.968C353.961 85.1493 353.854 85.312 353.753 85.456C353.651 85.5947 353.51 85.7547 353.329 85.936C353.147 86.1173 353.003 86.2587 352.897 86.36C352.79 86.4613 352.633 86.6027 352.425 86.784C352.222 86.9653 352.083 87.0907 352.009 87.16H354.545V87.92H350.657ZM355.81 83.608C355.842 83.112 356.031 82.7253 356.378 82.448C356.73 82.1707 357.181 82.032 357.73 82.032C358.285 82.032 358.719 82.176 359.034 82.464C359.354 82.7467 359.514 83.1093 359.514 83.552C359.514 83.8827 359.426 84.1653 359.25 84.4C359.074 84.6347 358.863 84.792 358.618 84.872V84.904C358.933 85 359.178 85.176 359.354 85.432C359.53 85.6827 359.618 86.0267 359.618 86.464C359.618 86.9013 359.453 87.272 359.122 87.576C358.797 87.88 358.341 88.032 357.754 88.032C357.173 88.032 356.695 87.8853 356.322 87.592C355.954 87.2933 355.757 86.8667 355.73 86.312H356.61C356.631 86.5947 356.741 86.8267 356.938 87.008C357.135 87.184 357.399 87.272 357.73 87.272C358.061 87.272 358.314 87.184 358.49 87.008C358.666 86.8267 358.754 86.5947 358.754 86.312C358.754 85.9387 358.634 85.6747 358.394 85.52C358.159 85.36 357.797 85.28 357.306 85.28H357.098V84.528H357.314C358.199 84.5173 358.642 84.2267 358.642 83.656C358.642 83.4 358.559 83.1973 358.394 83.048C358.229 82.8933 357.994 82.816 357.69 82.816C357.391 82.816 357.159 82.8933 356.994 83.048C356.829 83.1973 356.73 83.384 356.698 83.608H355.81ZM361.296 82.152H364.816V82.952H362.136V84.544C362.248 84.3947 362.413 84.2693 362.632 84.168C362.856 84.0667 363.115 84.016 363.408 84.016C363.707 84.016 363.981 84.0747 364.232 84.192C364.488 84.3093 364.683 84.4667 364.816 84.664C365.083 85.048 365.216 85.48 365.216 85.96C365.216 86.568 365.043 87.0613 364.696 87.44C364.349 87.8133 363.867 88 363.248 88C362.635 88 362.152 87.856 361.8 87.568C361.448 87.28 361.237 86.8987 361.168 86.424H362.056C362.115 86.6747 362.245 86.8747 362.448 87.024C362.651 87.168 362.923 87.24 363.264 87.24C363.605 87.24 363.869 87.1253 364.056 86.896C364.248 86.6667 364.344 86.3627 364.344 85.984C364.344 85.6 364.248 85.3067 364.056 85.104C363.864 84.896 363.581 84.792 363.208 84.792C362.947 84.792 362.725 84.8587 362.544 84.992C362.368 85.12 362.24 85.296 362.16 85.52H361.296V82.152Z" fill="black"/>
<rect x="155.686" y="207.726" width="23.5046" height="26.4153" fill="#4C8CB2"/>
<rect x="181.695" y="200.126" width="23.5046" height="34.0142" fill="#79AACD"/>
<rect x="285.742" y="200.126" width="23.5046" height="34.0142" fill="#79AACD"/>
<rect x="311.755" y="184.567" width="23.5046" height="49.5738" fill="#4C8CB2"/>
<rect x="337.767" y="152" width="23.5046" height="82.1406" fill="#BCCCD8"/>
<rect x="207.707" y="175.882" width="23.5046" height="58.2583" fill="#4C8CB2"/>
<rect x="233.721" y="183.12" width="23.5046" height="51.0213" fill="#79AACD"/>
<rect x="259.731" y="208.449" width="23.5046" height="25.6916" fill="#4C8CB2"/>
<path d="M2 343.5L455 343.5" stroke="#B0ABAB" stroke-width="3" stroke-linecap="round"/>
<path d="M447.709 174.469C447.469 175.35 447.331 175.643 447.026 176.235C445.06 180.053 440.5 185.501 440.5 185.501L436.973 177.018C436.973 177.018 437.549 174.355 438.546 170.547C441.954 171.499 445.198 172.049 447.709 174.469Z" fill="#F8A492"/>
<path d="M427.485 167.112C427.485 167.112 447.161 176.154 447.797 175.983C448.206 175.871 455.868 162.186 455.948 149.317C455.987 143.374 450.203 136.224 443.748 137.638C440.499 138.349 440.549 139.313 435.744 146.768C430.936 154.222 427.485 167.112 427.485 167.112Z" fill="#13375B"/>
<path d="M410.688 329.235C410.688 329.235 411.154 337.482 411.157 337.498C411.328 338.546 412.004 341.133 412.004 342.085C412.004 345.66 396.093 339.05 399.661 337.465C399.985 337.322 401.675 336.237 401.782 335.021C401.946 333.145 402.36 329.352 402.36 329.352L410.688 329.235Z" fill="#F7A491"/>
<path d="M399.7 337.429C399.7 337.429 403.435 338.524 405.348 338.795C407.262 339.069 409.785 336.765 411.137 337.389C412.627 338.074 412.567 344.236 412.567 344.236C412.567 344.236 392.537 345.99 386.903 344.174C384.675 343.455 392.065 339.976 399.7 337.429Z" fill="#2D3F65"/>
<path d="M443.234 329.235C443.234 329.235 443.701 337.482 443.703 337.498C443.875 338.546 444.551 341.133 444.551 342.085C444.551 345.66 428.64 339.05 432.205 337.465C432.529 337.322 434.721 335.428 434.826 334.209C434.99 332.334 434.902 329.352 434.902 329.352L443.234 329.235Z" fill="#F7A491"/>
<path d="M432.248 337.429C432.248 337.429 435.982 338.524 437.896 338.795C439.809 339.069 442.332 336.765 443.684 337.389C445.174 338.074 445.233 344.236 445.233 344.236C445.233 344.236 425.112 346.28 419.453 344.174C417.253 343.358 424.61 339.976 432.248 337.429Z" fill="#2D3F65"/>
<path d="M424.399 157.959C424.34 157.775 424.214 157.399 424.019 156.826C423.314 154.748 421.846 150.421 420.565 146.118L420.551 146.073C420.149 144.569 419.297 141.946 418.473 139.406C417.557 136.583 416.419 133.085 416.381 132.487C416.417 132.385 416.907 131.807 416.993 131.564C417.507 130.141 417.883 127.161 418.023 125.673C418.111 124.736 417.857 119.114 416.812 119.114C415.546 119.114 415.788 122.12 415.524 123.674C415.462 124.033 414.951 124.033 414.886 123.676C414.791 123.131 414.701 122.47 414.534 121.406L414.26 116.953C414.208 116.617 414.115 111.405 412.961 111.412C411.635 111.419 412.321 116.855 411.89 121.273C411.754 120.763 411.616 120.152 411.514 119.587C411.526 119.285 411.138 117.16 410.981 116.46C411.188 115.23 411.273 110.136 410.043 110.32C409.426 110.412 409.262 116.148 409.262 116.148C409.269 116.52 409.498 120.306 409.479 120.873C409.353 119.911 408.56 110.788 407.596 110.788C406.797 110.788 406.906 114.235 407.049 117.786C407.07 118.302 407.413 121.668 407.439 122.184C407.063 121.511 406.304 115.42 405.93 115.42C404.371 115.42 405.397 124.24 405.971 125.69C406.025 125.837 406.082 126.13 406.147 126.466C406.342 127.458 406.668 129.117 407.484 130.607C408.463 132.395 409.629 133.404 409.833 133.839C409.983 134.727 410.638 139.747 411.228 143.762C411.48 145.48 411.757 147.363 412.045 149.314L412.059 149.312C412.111 149.733 412.404 151.076 413.513 156.112C415.029 163.004 415.189 163.302 415.255 163.428C415.915 164.673 431.021 186.569 431.666 187.5L432.044 188.05L438.406 178.908L424.399 157.959Z" fill="#F7A491"/>
<path d="M412.097 127.934C412.097 127.934 413.234 124.831 415.26 124.824C415.26 124.824 414.129 124.388 413.158 125.207C412.187 126.03 412.097 127.934 412.097 127.934Z" fill="#F47458"/>
<path d="M441.757 124.181L443.561 136.355C443.561 136.355 436.687 142.245 432.682 141.003C429.319 139.961 431.625 135.269 431.625 135.269C431.625 135.269 433.415 128.769 432.867 125.364C432.315 121.958 441.757 124.181 441.757 124.181Z" fill="#F7A491"/>
<path d="M440.461 127.862C438.737 128.731 435.332 129.916 432.683 130.202C432.937 128.498 433.08 126.696 432.866 125.366C432.611 123.793 434.487 123.421 436.579 123.476C439.316 123.726 441.758 124.183 441.758 124.183L442.105 126.523C441.582 127.108 441.034 127.574 440.461 127.862Z" fill="#F47458"/>
<path d="M450.429 110.138C450.712 110.141 447.711 123.74 443.07 126.08C438.427 128.419 431.501 127.201 430.201 123.538C428.764 119.487 434.007 105.611 440.538 103.848C447.069 102.084 450.429 110.138 450.429 110.138Z" fill="#F7A491"/>
<path d="M445.058 97.6431C448.766 99.9255 450.47 103.312 451.041 104.7C452.781 105.581 454.89 107.489 455.899 112.628C457.141 118.945 452.722 123.817 448.035 125.28C443.349 126.744 442.609 129.959 442.609 129.959L442.092 126.494C442.092 126.494 443.135 123.393 444.703 121.841C446.272 120.289 443.961 118.028 443.758 116.181C443.601 114.76 444.582 112.002 444.37 109.672C444.37 109.672 441.766 105.459 439.198 104.419C434.824 102.644 440.298 94.7132 445.058 97.6431Z" fill="#0A0F14"/>
<path d="M443.081 118.547C442.474 120.118 442.722 121.677 443.636 122.031C444.547 122.384 445.78 121.396 446.387 119.828C446.994 118.257 446.747 116.698 445.833 116.343C444.921 115.988 443.688 116.976 443.081 118.547Z" fill="#F7A491"/>
<path d="M425.788 179.377L398.76 174.674C398.76 174.674 401.835 166.41 402.934 166.41C404.034 166.41 423.372 175.421 423.372 175.421L424.909 178.717L425.788 179.377Z" fill="#F8A492"/>
<path d="M439.633 199.155C439.633 199.155 442.33 213.066 441.23 223.615C440.131 234.163 440.045 271.635 440.045 271.635L444.239 331.589L434.29 331.819C434.29 331.819 422.492 271.894 422.713 273.434C422.932 274.972 418.758 231.241 418.758 231.241L432.822 197.839L439.633 199.155Z" fill="#041231"/>
<path d="M436.996 198.496C436.996 198.496 438.755 211.022 436.555 216.515C434.359 222.008 417.708 275.914 417.486 280.308C417.267 284.704 411.729 333.281 411.729 333.281L400.16 332.933L397.658 278.923L402.899 211.041L407.988 193.878L436.996 198.496Z" fill="#041231"/>
<path d="M443.562 136.357C443.562 136.357 440.709 138.354 438.048 138.123C435.387 137.893 431.624 135.272 431.624 135.272L432.148 133.38C432.148 133.38 439.031 132.309 439.205 132.426C439.378 132.542 443.562 136.357 443.562 136.357Z" fill="#F7A491"/>
<path d="M413.159 166.003C413.159 166.003 402.934 176.299 398.322 174.543C393.707 172.784 391.798 166.774 403.058 157.982C413.133 150.114 413.159 166.003 413.159 166.003Z" fill="#F8A492"/>
<path d="M406.23 178.717C407.748 169.899 418.756 142.457 419.634 137.404C420.06 134.946 425.998 134.891 431.653 135.212C437.627 135.55 443.561 136.357 443.561 136.357C443.561 136.357 448.849 137.283 451.175 139.611C453.502 141.938 454.119 148.372 450.775 160.586C448.135 170.228 444.863 175.523 443.242 182.547C442.913 184.903 442.633 187.226 442.261 189.942C441.666 200.443 442.268 214.318 442.268 214.318C442.268 214.318 413.482 220.692 402.712 211.022C402.714 211.022 404.673 187.752 406.23 178.717Z" fill="#8CDEF9"/>
<path d="M398.888 159.755C398.888 159.755 410.183 169.706 410.843 169.706C411.266 169.706 426.963 157.385 430.585 147.262C432.589 141.667 428.386 135.405 423.588 135.426C420.263 135.441 418.783 136.355 412.19 142.288C405.599 148.221 398.888 159.755 398.888 159.755Z" fill="#13375B"/>
<defs>
<filter id="filter0_d_408_542" x="128.686" y="0" width="262" height="357" filterUnits="userSpaceOnUse" color-interpolation-filters="sRGB">
<feFlood flood-opacity="0" result="BackgroundImageFix"/>
<feColorMatrix in="SourceAlpha" type="matrix" values="0 0 0 0 0 0 0 0 0 0 0 0 0 0 0 0 0 0 127 0" result="hardAlpha"/>
<feOffset/>
<feGaussianBlur stdDeviation="7"/>
<feComposite in2="hardAlpha" operator="out"/>
<feColorMatrix type="matrix" values="0 0 0 0 0 0 0 0 0 0 0 0 0 0 0 0 0 0 0.25 0"/>
<feBlend mode="normal" in2="BackgroundImageFix" result="effect1_dropShadow_408_542"/>
<feBlend mode="normal" in="SourceGraphic" in2="effect1_dropShadow_408_542" result="shape"/>
</filter>
</defs>
</svg>
